<svg xmlns="http://www.w3.org/2000/svg" xmlns:xlink="http://www.w3.org/1999/xlink" version="1.1"><metadata>Created by FontForge 20150824 at Thu Jul 21 01:24:50 2016 By Everything Fonts Copyright (c) 2013 by Mariya Pigoulevskaya. All rights reserved.</metadata><defs><font id="AcromThin" horiz-adv-x="674"><font-face x-height="500" ascent="750" bbox="0 -352 1240 949" cap-height="700" descent="-250" font-family="AcromThin" font-stretch="normal" font-weight="300" panose-1="0 0 4 0 0 0 0 0 0 0" underline-position="-150" underline-thickness="50" unicode-range="U+0020-25CA" units-per-em="1000"/><glyph d="M0 0v700h500v-700h-500zM250 395l170 255h-340zM280 350l170 -255v510zM80 50h340l-170 255zM50 605v-510l170 255z" glyph-name=".notdef" horiz-adv-x="500"/><glyph glyph-name=".null" horiz-adv-x="0"/><glyph glyph-name="nonmarkingreturn" horiz-adv-x="333"/><glyph glyph-name="space" horiz-adv-x="309"/><glyph d="M124 700v-315l-7 -231h-34l-7 231v315h48zM100 57q14 0 24 -9.5t10 -22.5t-10 -22.5t-24 -9.5t-24 9.5t-10 22.5t10 22.5t24 9.5z" glyph-name="exclam" horiz-adv-x="201" unicode="!"/><glyph d="M96 550h-24l-6 150h36zM182 550h-24l-6 150h36z" glyph-name="quotedbl" horiz-adv-x="255" unicode="&quot;"/><glyph d="M441 260h150l-6 -32h-151l-49 -228h-34l49 228h-154l-49 -228h-34l49 228h-146l7 32h145l35 163h-145l6 32h146l52 245h34l-52 -245h153l53 245h34l-53 -245h151l-7 -32h-150zM287 423l-34 -163h154l34 163h-154z" glyph-name="numbersign" horiz-adv-x="699" unicode="#"/><glyph d="M345 390l39 -5q108 -14 160.5 -59.5t52.5 -132.5q0 -89 -73.5 -144.5t-176.5 -55.5h-2v-47h-34v48q-90 6 -153.5 48t-91.5 109l31 29q23 -60 78 -97.5t136 -43.5v311l-17 2q-108 14 -159 54t-51 112q0 83 67.5 135t159.5 54v43h34v-43q71 -4 131 -34.5t96 -82.5l-31 -29 q-66 93 -196 101v-272zM311 395v267q-71 -2 -125 -40.5t-54 -102.5q0 -52 38.5 -81t127.5 -41zM345 38h2q84 0 143 42.5t59 112.5q0 66 -41 101t-128 46l-35 5v-307z" glyph-name="dollar" horiz-adv-x="664" unicode="$"/><glyph d="M234 707q70 0 119 -48.5t49 -117.5t-49 -117.5t-119 -48.5t-119 48.5t-49 117.5t49 117.5t119 48.5zM638 700l-422 -700h-37l421 700h38zM235 673q-58 0 -94.5 -36.5t-36.5 -95.5t36.5 -95.5t94.5 -36.5t94.5 37t36.5 95t-36.5 95t-94.5 37zM583 325q70 0 119 -48.5 t49 -117.5t-49 -117.5t-119 -48.5t-119 48.5t-49 117.5t49 117.5t119 48.5zM583 291q-58 0 -94.5 -36.5t-36.5 -95.5t36.5 -95.5t94.5 -36.5t94.5 37t36.5 95t-36.5 95t-94.5 37z" glyph-name="percent" horiz-adv-x="818" unicode="%"/><glyph d="M560 0l-62 63q-64 -69 -189 -69h-6q-108 2 -172.5 55t-64.5 145q0 66 35 111.5t96 66.5l-49 50q-45 47 -45 114q0 79 59 123.5t144 44.5h7q82 -1 141 -45.5t59 -122.5v-9h-46q0 66 -47.5 100t-112.5 34q-64 0 -111 -33.5t-47 -98.5q0 -53 36 -91l309 -314q22 38 22 85h38 q0 -65 -31 -116l90 -93h-53zM310 38q106 0 157 59l-244 248q-51 -16 -80.5 -53t-29.5 -92q0 -77 55 -119.5t142 -42.5z" glyph-name="ampersand" horiz-adv-x="680" unicode="&amp;"/><glyph d="M96 550h-24l-6 150h36z" glyph-name="quotesingle" horiz-adv-x="169" unicode="'"/><glyph d="M312 739l-1 -45q-77 -48 -136 -154.5t-61 -231.5v-10q0 -126 58.5 -232.5t138.5 -160.5l1 -45q-101 53 -173.5 173t-72.5 265v10q2 144 74.5 263.5t171.5 167.5z" glyph-name="parenleft" horiz-adv-x="379" unicode="("/><glyph d="M66 694v45q98 -48 171 -167.5t75 -263.5v-10q0 -145 -72.5 -265t-173.5 -173v45q81 53 139.5 160t58.5 233l-1 10q-1 125 -60 231.5t-137 154.5z" glyph-name="parenright" horiz-adv-x="379" unicode=")"/><glyph d="M330 440l-26 -20l-83 115l-84 -115l-25 20l87 111l-133 40l9 31l132 -44l-2 138h32l-2 -138l132 44l9 -31l-133 -40z" glyph-name="asterisk" horiz-adv-x="443" unicode="*"/><glyph d="M291 319h189v-33h-189v-191h-36v191h-189v33h189v190h36v-190z" glyph-name="plus" horiz-adv-x="547" unicode="+"/><glyph d="M169 57l-72 -162h-31l47 162h56z" glyph-name="comma" horiz-adv-x="236" unicode=","/><glyph d="M314 272h-248v34h248v-34z" glyph-name="hyphen" horiz-adv-x="381" unicode="-"/><glyph d="M100 57q14 0 24 -9.5t10 -22.5t-10 -22.5t-24 -9.5t-24 9.5t-10 22.5t10 22.5t24 9.5z" glyph-name="period" horiz-adv-x="201" unicode="."/><glyph d="M397 700l-297 -700h-34l297 700h34z" glyph-name="slash" horiz-adv-x="464" unicode="/"/><glyph d="M424 693q145 0 247.5 -102.5t102.5 -247.5t-102.5 -247.5t-247.5 -102.5t-247 102.5t-102 247.5t102 247.5t247 102.5zM424 648q-126 0 -213.5 -88.5t-87.5 -216.5q0 -129 87.5 -217t213.5 -88t213.5 88t87.5 217q0 128 -87.5 216.5t-213.5 88.5z" glyph-name="zero" horiz-adv-x="849" unicode="0"/><glyph d="M226 0h-48v592l-96 -115l-34 25l153 183h25v-685z" glyph-name="one" horiz-adv-x="342" unicode="1"/><glyph d="M572 0h-514v25l317 278q75 66 103 106.5t28 89.5q0 68 -54 108.5t-128 40.5h-12q-134 0 -207 -103l-31 29q40 58 103 88t138 30h12q94 0 160.5 -53t66.5 -134q0 -62 -37 -113t-131 -133l-242 -214h428v-45z" glyph-name="two" horiz-adv-x="630" unicode="2"/><glyph d="M558 661l-292 -251q41 11 95 11q105 -3 161.5 -56.5t56.5 -138.5q0 -102 -67.5 -166.5t-176.5 -66.5h-10q-97 1 -166 42t-101 113l31 29q67 -139 239 -140h6q88 2 143 54.5t55 139.5q0 159 -200 159q-64 0 -124 -28l-28 21l299 258h-360v44h439v-24z" glyph-name="three" horiz-adv-x="637" unicode="3"/><glyph d="M497 149v-149h-48v149h-401v25l425 511h24v-491h85v-45h-85zM449 596l-338 -402h338v402z" glyph-name="four" horiz-adv-x="630" unicode="4"/><glyph d="M516 641h-363v-258q71 52 196 52q105 0 167 -59t62 -158q0 -95 -68 -159t-176 -66h-11q-97 1 -165 42t-100 113l31 29q67 -139 238 -139h5q86 2 143 52t57 130q0 85 -52.5 131t-149.5 46q-55 0 -109.5 -18t-85.5 -46l-26 21v331h407v-44z" glyph-name="five" horiz-adv-x="636" unicode="5"/><glyph d="M328 692h7q132 0 207 -95l-32 -29q-69 80 -175 80h-7q-62 0 -107 -27.5t-69 -74.5t-35 -97t-12 -106q26 55 83 89t131 34q107 0 176.5 -66.5t69.5 -168.5q0 -100 -70 -169t-181 -69q-117 0 -186 75.5t-69 186.5l-1 70q0 68 14 130t44 117t84.5 87.5t127.5 32.5zM312 425 q-89 0 -147 -54t-58 -128q0 -86 54.5 -145.5t150.5 -59.5q89 0 147 55.5t58 137.5t-58 138t-147 56z" glyph-name="six" horiz-adv-x="624" unicode="6"/><glyph d="M492 661l-390 -661h-52l377 641h-379v44h444v-24z" glyph-name="seven" horiz-adv-x="540" unicode="7"/><glyph d="M394 367q70 -18 111 -64.5t41 -114.5q0 -89 -66 -141t-173 -54h-6q-109 0 -176 52.5t-67 142.5q0 69 41 115t111 64q-124 38 -124 156q0 80 61 125.5t153 45.5h8q90 -2 149.5 -47t59.5 -124q0 -118 -123 -156zM133 517q0 -67 48.5 -100.5t120.5 -33.5q71 0 120 33.5 t49 100.5t-49 100.5t-120 33.5q-72 0 -120.5 -33.5t-48.5 -100.5zM302 38q87 0 142 41.5t55 114.5q0 74 -53.5 114.5t-143.5 42.5q-22 0 -45 -3.5t-51.5 -14t-50 -27t-36 -45.5t-14.5 -67q0 -73 55 -114.5t142 -41.5z" glyph-name="eight" horiz-adv-x="604" unicode="8"/><glyph d="M295 -7h-7q-133 0 -206 96l31 29q69 -80 175 -80h7q62 0 107 27.5t69 74t35 96.5t12 107q-26 -56 -83 -90t-131 -34q-106 0 -176 67t-70 169q0 100 70 168.5t182 68.5q117 0 186 -75t69 -186v-70q0 -68 -14 -130t-43.5 -117t-84.5 -88t-128 -33zM312 261q89 0 147 53.5 t58 127.5q0 86 -54.5 145.5t-150.5 59.5q-89 0 -147 -55.5t-58 -137.5t58 -137.5t147 -55.5z" glyph-name="nine" horiz-adv-x="624" unicode="9"/><glyph d="M100 350q14 0 24 -9.5t10 -22.5t-10 -22.5t-24 -9.5t-24 9.5t-10 22.5t10 22.5t24 9.5zM100 57q14 0 24 -9.5t10 -22.5t-10 -22.5t-24 -9.5t-24 9.5t-10 22.5t10 22.5t24 9.5z" glyph-name="colon" horiz-adv-x="201" unicode=":"/><glyph d="M144 350q14 0 24 -9.5t10 -22.5t-10 -22.5t-24 -9.5t-24 9.5t-10 22.5t10 22.5t24 9.5zM169 57l-72 -162h-31l47 162h56z" glyph-name="semicolon" horiz-adv-x="244" unicode=";"/><glyph d="M389 498l-246 -157l246 -156v-46l-323 203l323 202v-46z" glyph-name="less" horiz-adv-x="456" unicode="&lt;"/><glyph d="M480 345h-414v34h414v-34zM480 200h-414v34h414v-34z" glyph-name="equal" horiz-adv-x="547" unicode="="/><glyph d="M389 342l-323 -203v46l246 156l-246 157v46z" glyph-name="greater" horiz-adv-x="456" unicode="&gt;"/><glyph d="M333 707h11q108 -2 175.5 -64.5t67.5 -156.5q0 -95 -67.5 -150.5t-179.5 -60.5v-90h-48v121q123 -1 185.5 44.5t62.5 130.5q0 80 -56 130t-143 52h-5q-167 -1 -239 -140l-31 29q33 69 102.5 111.5t164.5 43.5zM317 57q14 0 24 -9.5t10 -22.5t-10 -22.5t-24 -9.5t-24 9.5 t-10 22.5t10 22.5t24 9.5z" glyph-name="question" horiz-adv-x="654" unicode="?"/><glyph d="M471 662q187 0 296.5 -115t109.5 -288v-147q0 -54 -27.5 -81t-73.5 -28q-83 2 -90 81l-1 57q-28 -62 -87 -100.5t-131 -38.5q-102 0 -173.5 72.5t-71.5 175.5t71.5 176t173.5 73q70 0 128.5 -37.5t86.5 -99.5l1 130h32v-388q0 -66 62 -68q28 0 44.5 16t16.5 60v146 q0 162 -98.5 265.5t-268.5 103.5q-151 0 -258.5 -107t-107.5 -264q0 -158 107.5 -264t258.5 -106q96 0 175 44l25 -26q-92 -54 -200 -54q-168 0 -286.5 118.5t-118.5 287.5q0 168 118.5 287t286.5 119zM470 460q-87 0 -147.5 -60.5t-60.5 -149.5t60.5 -149.5t147.5 -60.5 q86 0 147 60.5t61 149.5t-61 149.5t-147 60.5z" glyph-name="at" horiz-adv-x="944" unicode="@"/><glyph d="M189 215l-89 -215h-52l292 700h24l291 -700h-52l-89 215h-325zM352 609l-145 -349h290z" glyph-name="A" horiz-adv-x="704" unicode="A"/><glyph d="M116 700h246q69 0 116.5 -15t71 -41.5t33 -55t9.5 -64.5q0 -120 -113 -156q75 -13 114.5 -60t39.5 -118q0 -190 -236 -190h-281v700zM164 655v-270h202q180 0 180 134q0 63 -37 99.5t-143 36.5h-202zM164 343v-298h240q98 0 140.5 38.5t42.5 110.5q0 70 -45.5 109.5 t-137.5 39.5h-240z" glyph-name="B" horiz-adv-x="692" unicode="B"/><glyph d="M431 707q158 0 264 -117l-31 -29q-93 101 -233 101q-129 0 -218.5 -90t-89.5 -222t89.5 -222t218.5 -90q141 0 233 101l31 -31q-105 -115 -264 -115q-148 0 -252 104.5t-104 252.5t104 252.5t252 104.5z" glyph-name="C" horiz-adv-x="753" unicode="C"/><glyph d="M116 700h209q151 0 253.5 -97.5t102.5 -252.5t-102.5 -252.5t-253.5 -97.5h-209v700zM164 45h161q132 0 220 83t88 222t-88 222t-220 83h-161v-610z" glyph-name="D" horiz-adv-x="756" unicode="D"/><glyph d="M164 377h364v-44h-364v-288h383v-45h-431v700h431v-45h-383v-278z" glyph-name="E" horiz-adv-x="606" unicode="E"/><glyph d="M164 377h364v-44h-364v-333h-48v700h431v-45h-383v-278z" glyph-name="F" horiz-adv-x="606" unicode="F"/><glyph d="M431 707q158 0 264 -117l-31 -29q-93 101 -233 101q-129 0 -218.5 -90t-89.5 -222t89.5 -222.5t218.5 -90.5q128 0 216 88v194h-224v38h272v-249q-105 -115 -264 -115q-148 0 -252 104.5t-104 252.5t104 252.5t252 104.5z" glyph-name="G" horiz-adv-x="801" unicode="G"/><glyph d="M635 0h-48v333h-423v-333h-48v700h48v-322h423v322h48v-700z" glyph-name="H" horiz-adv-x="752" unicode="H"/><glyph d="M245 45h81v-45h-210v45h81v610h-81v45h210v-45h-81v-610z" glyph-name="I" horiz-adv-x="443" unicode="I"/><glyph d="M517 700v-471q0 -108 -58 -172t-163 -64t-163 64t-58 172v23h48v-27q0 -85 44 -136t129 -51t129 51t44 136v430h-257v45h305z" glyph-name="J" horiz-adv-x="591" unicode="J"/><glyph d="M601 0l-142 220q-26 40 -37 54.5t-30 32.5t-39 22.5t-51 4.5h-138v-334h-48v700h48v-321h124q31 0 51 4.5t39 22.5t30 32.5t37 54.5l133 207h56l-148 -227q-25 -38 -37.5 -55.5t-29 -33.5t-33.5 -24q31 -10 53 -35t61 -85l156 -240h-55z" glyph-name="K" horiz-adv-x="705" unicode="K"/><glyph d="M544 0h-428v700h48v-655h380v-45z" glyph-name="L" horiz-adv-x="593" unicode="L"/><glyph d="M774 0h-48v601l-286 -366l-286 366v-601h-48v700h25l309 -397l310 397h24v-700z" glyph-name="M" horiz-adv-x="891" unicode="M"/><glyph d="M626 0h-24l-448 600v-600h-48v700h25l447 -600v600h48v-700z" glyph-name="N" horiz-adv-x="733" unicode="N"/><glyph d="M431 707q148 0 252.5 -104.5t104.5 -252.5t-104.5 -252.5t-252.5 -104.5t-252 104.5t-104 252.5t104 252.5t252 104.5zM431 662q-129 0 -218.5 -90t-89.5 -222t89.5 -222t218.5 -90q130 0 219.5 90t89.5 222t-90 222t-219 90z" glyph-name="O" horiz-adv-x="863" unicode="O"/><glyph d="M116 700h216q133 0 218.5 -65.5t85.5 -185.5q0 -119 -86 -185t-218 -66h-168v-198h-48v700zM164 243h170q111 0 183 51.5t72 154.5t-72 154.5t-183 51.5h-170v-412z" glyph-name="P" horiz-adv-x="711" unicode="P"/><glyph d="M431 707q148 0 252.5 -104.5t104.5 -252.5q0 -106 -58.5 -190.5t-152.5 -121.5h220v-45h-366q-148 0 -252 104.5t-104 252.5t104 252.5t252 104.5zM431 662q-129 0 -218.5 -90t-89.5 -222t89.5 -222t218.5 -90q130 0 219.5 90t89.5 222t-90 222t-219 90z" glyph-name="Q" horiz-adv-x="871" unicode="Q"/><glyph d="M116 700h218q132 0 217 -64.5t85 -181.5q0 -89 -52.5 -147t-140.5 -81q63 -21 121 -112l75 -114h-55l-64 99q-44 68 -81 88.5t-99 20.5h-176v-208h-48v700zM164 655v-402h173q110 0 181 50.5t71 150.5t-71 150.5t-181 50.5h-173z" glyph-name="R" horiz-adv-x="688" unicode="R"/><glyph d="M308 707h12q76 0 140.5 -30.5t103.5 -86.5l-31 -29q-35 49 -91.5 75t-121.5 26h-12q-72 0 -128 -38.5t-56 -104.5q0 -52 38.5 -81t127.5 -41l86 -12q108 -14 160.5 -59.5t52.5 -132.5q0 -89 -73.5 -144.5t-176.5 -55.5h-6q-102 0 -173.5 42.5t-101.5 115.5l31 29 q26 -66 88.5 -104t155.5 -38h6q84 0 143 42.5t59 112.5q0 66 -41 101t-128 46l-86 12q-108 14 -159 54t-51 112q0 84 69 136.5t163 52.5z" glyph-name="S" horiz-adv-x="648" unicode="S"/><glyph d="M325 655v-655h-48v655h-229v45h506v-45h-229z" glyph-name="T" horiz-adv-x="602" unicode="T"/><glyph d="M688 700v-395q0 -141 -77.5 -226.5t-209.5 -85.5q-131 0 -208 85.5t-77 226.5v395h48v-394q0 -124 62 -196t175 -72q114 0 176.5 72t62.5 196v394h48z" glyph-name="U" horiz-adv-x="795" unicode="U"/><glyph d="M369 0h-25l-296 700h52l256 -608l255 608h53z" glyph-name="V" horiz-adv-x="712" unicode="V"/><glyph d="M866 0h-24l-247 601l-247 -601h-25l-275 700h52l235 -608l247 608h25l247 -608l235 608h52z" glyph-name="W" horiz-adv-x="1190" unicode="W"/><glyph d="M333 317l-229 -317h-56l258 359l-247 341h57l219 -300l218 300h56l-246 -343l258 -357h-57z" glyph-name="X" horiz-adv-x="669" unicode="X"/><glyph d="M371 0h-48v242l-275 458h55l244 -401l244 401h55l-275 -457v-243z" glyph-name="Y" horiz-adv-x="694" unicode="Y"/><glyph d="M571 0h-513v23l435 632h-399v45h470v-23l-435 -632h442v-45z" glyph-name="Z" horiz-adv-x="629" unicode="Z"/><glyph d="M114 -95h65v-45h-113v890h113v-45h-65v-800z" glyph-name="bracketleft" horiz-adv-x="246" unicode="["/><glyph d="M397 0h-34l-297 700h34z" glyph-name="backslash" horiz-adv-x="464" unicode="\"/><glyph d="M66 705v45h113v-890h-113v45h65v800h-65z" glyph-name="bracketright" horiz-adv-x="246" unicode="]"/><glyph d="M468 378h-38l-163 249l-163 -249h-38l201 307z" glyph-name="asciicircum" horiz-adv-x="535" unicode="^"/><glyph d="M480 -103h-414v30h414v-30z" glyph-name="underscore" horiz-adv-x="547" unicode="_"/><glyph d="M130 709l66 -102h-39l-91 102h64z" glyph-name="grave" horiz-adv-x="263" unicode="`"/><glyph d="M577 0h-35l-2 133q-29 -62 -88.5 -100.5t-132.5 -38.5q-106 0 -179.5 74.5t-73.5 181.5t73.5 182t179.5 75q73 0 132.5 -38.5t88.5 -101.5l2 133h35v-500zM323 37q87 0 149 61.5t62 151.5t-62 152t-149 62q-88 0 -149.5 -62t-61.5 -152t61.5 -151.5t149.5 -61.5z" glyph-name="a" unicode="a"/><glyph d="M141 700v-328q28 60 85.5 97.5t127.5 37.5q106 0 179.5 -75t73.5 -182t-73.5 -181.5t-179.5 -74.5q-73 0 -132.5 38.5t-88.5 100.5l-2 -133h-35v700h45zM351 464q-88 0 -149.5 -62t-61.5 -152t61.5 -151.5t149.5 -61.5t149.5 61.5t61.5 151.5t-61.5 152t-149.5 62z" glyph-name="b" unicode="b"/><glyph d="M322 507q120 0 197 -93l-28 -29q-67 78 -169 78q-88 0 -149.5 -61.5t-61.5 -151.5t61.5 -151.5t149.5 -61.5q101 0 169 79l28 -30q-77 -92 -197 -92q-106 0 -181 75t-75 181q0 107 75 182t181 75z" glyph-name="c" horiz-adv-x="581" unicode="c"/><glyph d="M577 0h-35l-2 133q-29 -62 -88.5 -100.5t-132.5 -38.5q-106 0 -179.5 74.5t-73.5 181.5t73.5 182t179.5 75q70 0 127.5 -37.5t85.5 -97.5v328h45v-700zM323 37q87 0 149 61.5t62 151.5t-62 152t-149 62q-88 0 -149.5 -62t-61.5 -152t61.5 -151.5t149.5 -61.5z" glyph-name="d" unicode="d"/><glyph d="M321 507q81 0 140.5 -41.5t86.5 -110.5q10 -25 13 -59.5t-3 -53.5h-446q0 -95 60.5 -150.5t158.5 -56.5q103 0 184 63l26 -28q-93 -76 -210 -76q-118 1 -191.5 71t-73.5 185q0 108 71.5 182.5t183.5 74.5zM322 465q-87 0 -144.5 -54.5t-62.5 -135.5h403q2 35 -11 67 q-22 56 -70 89.5t-115 33.5z" glyph-name="e" horiz-adv-x="624" unicode="e"/><glyph d="M345 705l-1 -40h-10q-62 0 -104 -32t-42 -108v-25h156v-43h-156v-457h-45v457h-77v43h77v26q0 94 55 139.5t134 40.5z" glyph-name="f" horiz-adv-x="395" unicode="f"/><glyph d="M314 507q72 0 131.5 -38t88.5 -100l2 131h35v-438q0 -118 -61.5 -185t-177.5 -68q-118 0 -211 76l27 29q84 -64 184 -63q96 0 144.5 52.5t48.5 151.5v75q-27 -59 -84 -95.5t-127 -36.5q-106 0 -179.5 74t-73.5 180t73.5 180.5t179.5 74.5zM318 464q-87 0 -149 -61.5 t-62 -150.5t61.5 -150t149.5 -61q87 0 149 61t62 150t-62 150.5t-149 61.5z" glyph-name="g" horiz-adv-x="668" unicode="g"/><glyph d="M350 507q101 0 159.5 -61.5t58.5 -173.5v-272h-46v270q0 96 -47 145t-130 49q-91 0 -145 -61.5t-54 -167.5v-235h-45v700h45v-325q29 67 86 99.5t118 32.5z" glyph-name="h" horiz-adv-x="660" unicode="h"/><glyph d="M131 571q-13 0 -21.5 8.5t-8.5 19.5q0 12 8.5 20.5t21.5 8.5t21.5 -8.5t8.5 -20.5q0 -11 -8.5 -19.5t-21.5 -8.5zM109 0v500h45v-500h-45z" glyph-name="i" horiz-adv-x="258" unicode="i"/><glyph d="M131 628q13 0 21.5 -8.5t8.5 -20.5q0 -11 -8.5 -19.5t-21.5 -8.5t-21.5 8.5t-8.5 19.5q0 12 8.5 20.5t21.5 8.5zM155 -184h-46v684h46v-684z" glyph-name="j" horiz-adv-x="258" unicode="j"/><glyph d="M479 0l-79 123q-45 71 -71.5 92.5t-84.5 21.5h-98v-237h-45v700h45v-420h84q58 0 84.5 21.5t71.5 92.5l69 106h52l-85 -128q-24 -37 -35.5 -53t-28.5 -33t-34 -25q31 -9 53 -33.5t59 -82.5l95 -145h-52z" glyph-name="k" horiz-adv-x="570" unicode="k"/><glyph d="M101 0v700h46v-700h-46z" glyph-name="l" horiz-adv-x="243" unicode="l"/><glyph d="M766 507q101 0 159.5 -61.5t58.5 -173.5v-272h-46v270q0 96 -47 145t-129 49q-91 0 -145 -61t-54 -168v-235h-46v270q0 96 -47 145t-130 49q-91 0 -145 -61.5t-54 -167.5v-235h-45v500h35l3 -131q28 70 87 104t124 34q79 0 132.5 -39t71.5 -114q26 77 87.5 115t129.5 38z" glyph-name="m" horiz-adv-x="1076" unicode="m"/><glyph d="M345 507q101 0 159.5 -61.5t58.5 -173.5v-272h-46v270q0 96 -47 145t-130 49q-91 0 -145 -61.5t-54 -167.5v-235h-45v500h35l3 -131q28 70 87 104t124 34z" glyph-name="n" horiz-adv-x="655" unicode="n"/><glyph d="M322 507q106 0 181.5 -75.5t75.5 -181.5t-75 -181t-182 -75q-106 0 -181 75t-75 181q0 107 75 182t181 75zM323 464q-88 0 -149.5 -62t-61.5 -152t61.5 -151.5t149.5 -61.5q87 0 149 61.5t62 151.5t-62 152t-149 62z" glyph-name="o" horiz-adv-x="646" unicode="o"/><glyph d="M322 507q106 0 179.5 -75t73.5 -182t-73.5 -181.5t-179.5 -74.5q-70 0 -127.5 37t-85.5 97v-312h-45v684h35l2 -133q29 63 89 101.5t132 38.5zM319 463q-88 0 -149.5 -61.5t-61.5 -151.5t61.5 -151.5t149.5 -61.5t149.5 61.5t61.5 151.5t-61.5 151.5t-149.5 61.5z" glyph-name="p" horiz-adv-x="642" unicode="p"/><glyph d="M577 -184h-45v312q-28 -60 -85.5 -97t-127.5 -37q-106 0 -179.5 74.5t-73.5 181.5t73.5 182t179.5 75q72 0 132 -38.5t89 -101.5l2 133h35v-684zM323 37q87 0 149 61.5t62 151.5t-62 151.5t-149 61.5q-88 0 -149.5 -61.5t-61.5 -151.5t61.5 -151.5t149.5 -61.5z" glyph-name="q" unicode="q"/><glyph d="M386 464h-18q-117 0 -172 -70.5t-55 -184.5v-209h-45v500h35l4 -148q57 155 242 155h9v-43z" glyph-name="r" horiz-adv-x="424" unicode="r"/><glyph d="M266 507h13q54 0 107.5 -25.5t82.5 -67.5l-28 -26q-24 36 -70.5 58.5t-90.5 22.5h-9q-61 0 -101.5 -26t-40.5 -69q0 -36 24.5 -58t95.5 -30l72 -8q25 -2 45.5 -6.5t42.5 -14.5t37 -24.5t24.5 -38.5t9.5 -56q0 -67 -55 -106t-137 -39h-9q-70 0 -129.5 29t-83.5 74l28 26 q19 -39 72 -64.5t113 -25.5h4q65 0 108.5 26.5t43.5 77.5q0 31 -10 51t-30 30t-37 14t-44 7l-70 8q-160 17 -160 126q0 61 52.5 98t129.5 37z" glyph-name="s" horiz-adv-x="547" unicode="s"/><glyph d="M188 457v-457h-45v457h-77v43h77v168h45v-168h77v-43h-77z" glyph-name="t" horiz-adv-x="322" unicode="t"/><glyph d="M558 0h-36l-2 131q-29 -70 -88 -104t-124 -34q-100 0 -158.5 61.5t-58.5 173.5v272h45v-270q0 -96 47.5 -145t129.5 -49q91 0 145 61.5t54 167.5v235h46v-500z" glyph-name="u" horiz-adv-x="650" unicode="u"/><glyph d="M293 0h-25l-230 500h48l194 -425l195 425h48z" glyph-name="v" horiz-adv-x="561" unicode="v"/><glyph d="M684 0h-25l-189 421l-190 -421h-25l-217 500h48l182 -425l190 425h23l190 -425l183 425h48z" glyph-name="w" horiz-adv-x="940" unicode="w"/><glyph d="M281 221l-189 -221h-54l216 258l-206 242h54l181 -209l178 209h54l-206 -245l216 -255h-54z" glyph-name="x" horiz-adv-x="564" unicode="x"/><glyph d="M563 500v-438q0 -118 -61.5 -185t-177.5 -68q-120 0 -211 76l27 29q84 -64 184 -63q96 0 144.5 52.5t48.5 151.5v74q-28 -67 -85 -99.5t-119 -32.5q-100 0 -158.5 61.5t-58.5 173.5v268h45v-266q0 -96 47.5 -145t129.5 -49q91 0 145 61.5t54 167.5v231h46z" glyph-name="y" horiz-adv-x="655" unicode="y"/><glyph d="M503 0h-437v27l355 430h-324v43h394v-27l-355 -430h367v-43z" glyph-name="z" horiz-adv-x="570" unicode="z"/><glyph d="M304 705h-32q-21 0 -36 -16t-15 -40v-221q0 -43 -22 -76t-61 -45q39 -13 61 -44.5t22 -73.5v-228q0 -24 15 -40t36 -16h32v-45h-37q-40 0 -66.5 27t-27.5 71v224q-1 47 -28.5 74.5t-73.5 29.5h-5v42h5q47 1 74.5 28t27.5 75v221q1 44 27.5 71t66.5 27h37v-45z" glyph-name="braceleft" horiz-adv-x="371" unicode="{"/><glyph d="M102 -60h-36v760h36v-760z" glyph-name="bar" horiz-adv-x="169" unicode="|"/><glyph d="M66 750h37q40 0 66.5 -27t26.5 -71v-221q1 -48 29 -75t74 -28h5v-42h-5q-47 -2 -74.5 -29.5t-28.5 -74.5v-224q0 -44 -26.5 -71t-66.5 -27h-37v45h31q21 0 36 16t15 40v228q0 42 22 73.5t61 44.5q-39 12 -61 45t-22 76v221q0 24 -15 40t-36 16h-31v45z" glyph-name="braceright" horiz-adv-x="371" unicode="}"/><glyph d="M477 326l-43 -61q-17 -24 -42.5 -32t-50 -3t-47.5 18l-61 36q-24 16 -55 15.5t-48 -24.5l-27 -37h-37l43 62q17 24 42.5 32t50 3t47.5 -18l61 -36q24 -16 55 -15.5t48 24.5l27 36h37z" glyph-name="asciitilde" horiz-adv-x="544" unicode="~"/><glyph d="M100 549q14 0 24 -9.5t10 -22.5t-10 -22.5t-24 -9.5t-24 9.5t-10 22.5t10 22.5t24 9.5zM76 -158v315l7 231h34l7 -231v-315h-48z" glyph-name="exclamdown" horiz-adv-x="201" unicode="¡"/><glyph d="M332 463v-426q94 4 159 79l28 -30q-73 -87 -187 -92v-92h-34v93q-99 9 -165.5 82t-66.5 173t66.5 173.5t165.5 82.5v95h34v-94q115 -5 187 -93l-28 -29q-64 73 -159 78zM111 250q0 -84 53.5 -143.5t133.5 -68.5v424q-80 -9 -133.5 -68.5t-53.5 -143.5z" glyph-name="cent" horiz-adv-x="586" unicode="¢"/><glyph d="M422 323h-218q25 -143 18.5 -198t-59.5 -80h429v-45h-525v36q32 9 51.5 17.5t33 24.5t18.5 32t5 50t-4.5 68t-14.5 95h-90v45h83l-20 122q-8 60 8 104t51 67.5t75.5 34.5t87.5 11h12q76 0 140 -30.5t103 -86.5l-31 -29q-35 49 -91.5 75t-121.5 26h-12q-35 0 -66 -8 t-59.5 -26t-41.5 -55t-5 -89l19 -116h225v-45z" glyph-name="sterling" unicode="£"/><glyph d="M503 482l-53 -53q52 -60 52 -139.5t-52 -139.5l53 -53l-24 -24l-53 53q-60 -52 -139.5 -52t-139.5 52l-53 -53l-24 24l53 53q-52 60 -52 139.5t52 139.5l-53 53l24 24l53 -53q60 51 139.5 51.5t139.5 -51.5l53 53zM178 164q50 -45 119 -41t114 57q45 54 40 121.5 t-56 112.5t-119.5 41t-113.5 -58q-45 -53 -40 -120.5t56 -112.5z" glyph-name="currency" horiz-adv-x="573" unicode="¤"/><glyph d="M398 258h190v-34h-199v-28h199v-34h-199v-162h-48v162h-198v34h198v28h-198v34h188l-265 442h55l244 -401l244 401h55z" glyph-name="yen" horiz-adv-x="731" unicode="¥"/><glyph d="M102 377h-36v323h36v-323zM102 -60h-36v322h36v-322z" glyph-name="brokenbar" horiz-adv-x="169" unicode="¦"/><glyph d="M265 624h14q54 0 107.5 -25.5t82.5 -67.5l-28 -26q-24 36 -70.5 58.5t-90.5 22.5h-9q-61 -1 -101.5 -26.5t-40.5 -69.5q0 -35 22.5 -56.5t89.5 -29.5l71 -8q71 -5 119.5 -39t48.5 -103q0 -65 -55 -104q38 -30 38 -84q0 -61 -52 -97.5t-130 -37.5h-14q-54 0 -107.5 25.5 t-82.5 67.5l28 26q24 -36 71 -58.5t90 -22.5h9q61 1 101.5 26.5t40.5 69.5q0 35 -22.5 56.5t-89.5 29.5l-71 8q-43 3 -78 15.5t-62.5 45t-27.5 81.5q0 65 55 104q-37 29 -37 84q0 61 52 97.5t129 37.5zM162 383q-50 -28 -50 -81q0 -89 120 -102l71 -8q50 -6 82 -20 q50 28 50 81q0 89 -120 102l-71 8q-50 6 -82 20z" glyph-name="section" horiz-adv-x="547" unicode="§"/><glyph d="M96 658q-13 0 -21.5 8.5t-8.5 19.5q0 12 8.5 20.5t21.5 8.5t21.5 -8.5t8.5 -20.5q0 -11 -8.5 -19.5t-21.5 -8.5zM300 658q-13 0 -21.5 8.5t-8.5 19.5q0 12 8.5 20.5t21.5 8.5t21.5 -8.5t8.5 -20.5q0 -11 -8.5 -19.5t-21.5 -8.5z" glyph-name="dieresis" horiz-adv-x="397" unicode="¨"/><glyph d="M332 700q113 0 189.5 -79.5t76.5 -190.5t-76.5 -190.5t-189.5 -79.5t-189.5 79.5t-76.5 190.5t76.5 190.5t189.5 79.5zM332 674q-102 0 -170 -71t-68 -173t68 -173t170 -71t170.5 71t68.5 173t-68.5 173t-170.5 71zM333 603q82 0 133 -63l-20 -20q-50 52 -113 52 q-55 0 -96.5 -42t-41.5 -100t41.5 -99.5t96.5 -41.5q61 0 112 53l21 -23q-52 -62 -133 -62q-71 0 -121.5 50.5t-50.5 122.5q0 71 50.5 122t121.5 51z" glyph-name="copyright" horiz-adv-x="665" unicode="©"/><glyph d="M213 351l-95 -78l95 -76v-47l-147 124l147 123v-46zM343 351l-95 -78l95 -76v-47l-147 124l147 123v-46z" glyph-name="guillemotleft" horiz-adv-x="410" unicode="«"/><glyph d="M446 285h-380v34h414v-154h-34v120z" glyph-name="logicalnot" horiz-adv-x="547" unicode="¬"/><glyph d="M332 700q113 0 189.5 -79.5t76.5 -190.5t-76.5 -190.5t-189.5 -79.5t-189.5 79.5t-76.5 190.5t76.5 190.5t189.5 79.5zM332 674q-102 0 -170 -71t-68 -173t68 -173t170 -71t170.5 71t68.5 173t-68.5 173t-170.5 71zM190 595h177q61 0 89 -28.5t28 -74.5q0 -41 -24.5 -67 t-73.5 -30l104 -130h-37l-103 126h-127v-126h-33v330zM223 565v-145h145q42 0 62.5 20t20.5 52q0 33 -20.5 53t-62.5 20h-145z" glyph-name="registered" horiz-adv-x="665" unicode="®"/><glyph d="M316 673h-250v36h250v-36z" glyph-name="macron" horiz-adv-x="383" unicode="¯"/><glyph d="M186 715q50 0 85 -35.5t35 -84.5q0 -50 -35 -85.5t-85 -35.5t-85 35.5t-35 85.5q0 49 35 84.5t85 35.5zM187 683q-36 0 -61.5 -25.5t-25.5 -62.5t25.5 -63t61.5 -26t61.5 26t25.5 63t-25.5 62.5t-61.5 25.5z" glyph-name="degree" horiz-adv-x="373" unicode="°"/><glyph d="M291 374h189v-32h-189v-137h-36v137h-189v32h189v138h36v-138zM480 121h-414v34h414v-34z" glyph-name="plusminus" horiz-adv-x="547" unicode="±"/><glyph d="M106 607h-40l66 102h64z" glyph-name="acute" horiz-adv-x="263" unicode="´"/><glyph d="M530 666h-43v-829h-36v829h-107v-829h-36v471q-108 0 -175 46t-67 146q0 101 68 150.5t176 49.5h220v-34z" glyph-name="paragraph" horiz-adv-x="597" unicode="¶"/><glyph d="M100 332q14 0 24 -10t10 -24t-10 -24t-24 -10t-24 10t-10 24t10 24t24 10z" glyph-name="periodcentered" horiz-adv-x="201" unicode="·"/><glyph d="M118 0l-11 -47q31 9 54 -7t23 -51q0 -39 -37 -53.5t-81 11.5v23q29 -21 56.5 -13.5t27.5 33.5q0 25 -20 34t-54 -5l19 75h23z" glyph-name="cedilla" horiz-adv-x="251" unicode="¸"/><glyph d="M213 274l-147 -124v47l96 76l-96 78v46zM343 274l-147 -124v47l96 76l-96 78v46z" glyph-name="guillemotright" horiz-adv-x="410" unicode="»"/><glyph d="M150 638l-61 -74l-23 17l100 119h21v-318h-37v256zM190 0h-34l322 700h34zM594 68v-68h-37v68h-200v16l216 234h21v-219h43v-31h-43zM557 260l-150 -161h150v161z" glyph-name="onequarter" horiz-adv-x="704" unicode="¼"/><glyph d="M187 382h-37v256l-61 -74l-23 17l100 119h21v-318zM190 0h-34l322 700h34zM715 0h-299v16l186 120q34 21 50.5 40t16.5 43q0 27 -26.5 50t-68.5 23h-6q-72 0 -119 -57l-24 22q59 69 147 69h6q58 -1 92.5 -31.5t34.5 -70.5q0 -37 -23 -62.5t-70 -53.5l-119 -74h222v-34z" glyph-name="onehalf" horiz-adv-x="781" unicode="½"/><glyph d="M335 681l-147 -116q12 4 47 4q58 -3 88.5 -27t30.5 -63q0 -44 -37.5 -74t-98.5 -30h-5q-54 0 -91.5 20.5t-55.5 46.5l23 22q37 -56 121 -56q46 0 77 21.5t31 53.5q0 27 -26.5 45t-72.5 18q-43 0 -65 -10l-20 15l147 117h-180v32h234v-19zM308 0h-34l322 700h34zM713 68 v-68h-37v68h-200v16l216 234h21v-219h43v-31h-43zM675 260l-150 -161h150v161z" glyph-name="threequarters" horiz-adv-x="822" unicode="¾"/><glyph d="M337 491q-14 0 -24 9.5t-10 22.5t10 22.5t24 9.5t24 -9.5t10 -22.5t-10 -22.5t-24 -9.5zM320 -160h-11q-108 3 -175.5 65.5t-67.5 156.5t67.5 150t178.5 61v90h48v-122q-122 2 -185 -44t-63 -131q0 -79 56.5 -129t142.5 -52h5q85 0 145.5 37t93.5 102l32 -29 q-33 -68 -102.5 -111t-164.5 -44z" glyph-name="questiondown" horiz-adv-x="654" unicode="¿"/><glyph d="M384 750h-39l-91 102h64zM655 0h-52l-89 215h-325l-89 -215h-52l292 700h24zM207 260h290l-145 349z" glyph-name="Agrave" horiz-adv-x="704" unicode="À"/><glyph d="M361 750h-40l66 102h64zM655 0h-52l-89 215h-325l-89 -215h-52l292 700h24zM207 260h290l-145 349z" glyph-name="Aacute" horiz-adv-x="704" unicode="Á"/><glyph d="M485 750h-46l-87 70l-88 -70h-46l115 107h38zM655 0h-52l-89 215h-325l-89 -215h-52l292 700h24zM207 260h290l-145 349z" glyph-name="Acircumflex" horiz-adv-x="704" unicode="Â"/><glyph d="M495 845l-15 -42q-20 -60 -63 -61q-27 -1 -50 22l-39 39q-16 16 -35 16q-29 -1 -42 -44l-7 -25h-29l14 42q20 60 63 61q28 1 50 -22l39 -39q16 -16 35 -16q16 0 25.5 10.5t16.5 33.5l7 25h30zM189 215l-89 -215h-52l292 700h24l291 -700h-52l-89 215h-325zM352 609 l-145 -349h290z" glyph-name="Atilde" horiz-adv-x="704" unicode="Ã"/><glyph d="M251 750q-13 0 -21.5 8t-8.5 20t8.5 20t21.5 8t21.5 -8t8.5 -20t-8.5 -20t-21.5 -8zM455 750q-13 0 -21.5 8t-8.5 20t8.5 20t21.5 8t21.5 -8t8.5 -20t-8.5 -20t-21.5 -8zM189 215l-89 -215h-52l292 700h24l291 -700h-52l-89 215h-325zM352 609l-145 -349h290z" glyph-name="Adieresis" horiz-adv-x="704" unicode="Ä"/><glyph d="M351 904q32 0 54.5 -22.5t22.5 -53.5q0 -32 -22.5 -55t-54.5 -23t-54 23t-22 55q0 31 22 53.5t54 22.5zM352 875q-20 0 -33 -14t-13 -33q0 -21 12.5 -35t33.5 -14q20 0 33 14t13 35q0 19 -13 33t-33 14zM189 215l-89 -215h-52l292 700h24l291 -700h-52l-89 215h-325z M352 609l-145 -349h290z" glyph-name="Aring" horiz-adv-x="704" unicode="Å"/><glyph d="M397 377h363v-44h-363v-288h383v-45h-431v215h-160l-89 -215h-52l292 700h440v-45h-383v-278zM349 602l-142 -342h142v342z" glyph-name="AE" horiz-adv-x="839" unicode="Æ"/><glyph d="M431 38q141 0 233 101l31 -31q-105 -115 -264 -115h-5l-9 -40q31 9 54 -7t23 -51q0 -39 -37 -53.5t-81 11.5v23q29 -21 56.5 -13.5t27.5 33.5q0 25 -20 34t-54 -5l17 69q-139 11 -233.5 113t-94.5 243q0 148 104 252.5t252 104.5q158 0 264 -117l-31 -29 q-93 101 -233 101q-129 0 -218.5 -90t-89.5 -222t89.5 -222t218.5 -90z" glyph-name="Ccedilla" horiz-adv-x="753" unicode="Ç"/><glyph d="M371 750h-39l-91 102h64zM547 655h-383v-278h364v-44h-364v-288h383v-45h-431v700h431v-45z" glyph-name="Egrave" horiz-adv-x="606" unicode="È"/><glyph d="M326 750h-40l66 102h64zM547 655h-383v-278h364v-44h-364v-288h383v-45h-431v700h431v-45z" glyph-name="Eacute" horiz-adv-x="606" unicode="É"/><glyph d="M465 750h-46l-87 70l-88 -70h-46l115 107h38zM547 655h-383v-278h364v-44h-364v-288h383v-45h-431v700h431v-45z" glyph-name="Ecircumflex" horiz-adv-x="606" unicode="Ê"/><glyph d="M226 806q13 0 21.5 -8t8.5 -20q0 -11 -8.5 -19.5t-21.5 -8.5t-21.5 8.5t-8.5 19.5q0 12 8.5 20t21.5 8zM430 806q13 0 21.5 -8t8.5 -20q0 -11 -8.5 -19.5t-21.5 -8.5t-21.5 8.5t-8.5 19.5q0 12 8.5 20t21.5 8zM547 655h-383v-278h364v-44h-364v-288h383v-45h-431v700h431 v-45z" glyph-name="Edieresis" horiz-adv-x="606" unicode="Ë"/><glyph d="M199 852l66 -102h-39l-91 102h64zM245 45h81v-45h-210v45h81v610h-81v45h210v-45h-81v-610z" glyph-name="Igrave" horiz-adv-x="443" unicode="Ì"/><glyph d="M217 750h-40l66 102h64zM326 655h-81v-610h81v-45h-210v45h81v610h-81v45h210v-45z" glyph-name="Iacute" horiz-adv-x="443" unicode="Í"/><glyph d="M387 750h-46l-87 70l-88 -70h-46l115 107h38zM358 655h-81v-610h81v-45h-210v45h81v610h-81v45h210v-45z" glyph-name="Icircumflex" horiz-adv-x="506" unicode="Î"/><glyph d="M146 806q13 0 21.5 -8t8.5 -20t-8.5 -20t-21.5 -8t-21.5 8t-8.5 20t8.5 20t21.5 8zM350 806q13 0 21.5 -8t8.5 -20t-8.5 -20t-21.5 -8t-21.5 8t-8.5 20t8.5 20t21.5 8zM353 655h-81v-610h81v-45h-210v45h81v610h-81v45h210v-45z" glyph-name="Idieresis" horiz-adv-x="497" unicode="Ï"/><glyph d="M193 700h209q151 0 253.5 -97.5t102.5 -252.5t-102.5 -252.5t-253.5 -97.5h-209v335h-77v33h77v332zM241 45h161q132 0 220 83t88 222t-88 222t-220 83h-161v-287h124v-33h-124v-290z" glyph-name="Eth" horiz-adv-x="833" unicode="Ð"/><glyph d="M304 853q28 1 50 -22l39 -39q16 -16 35 -16q16 0 25.5 10.5t16.5 33.5l7 25h30l-15 -42q-20 -60 -63 -61q-27 -1 -50 22l-39 39q-16 16 -35 16q-29 -1 -42 -44l-7 -25h-29l14 42q20 60 63 61zM626 0h-24l-448 600v-600h-48v700h25l447 -600v600h48v-700z" glyph-name="Ntilde" horiz-adv-x="733" unicode="Ñ"/><glyph d="M399 852l66 -102h-39l-91 102h64zM431 707q148 0 252.5 -104.5t104.5 -252.5t-104.5 -252.5t-252.5 -104.5t-252 104.5t-104 252.5t104 252.5t252 104.5zM431 662q-129 0 -218.5 -90t-89.5 -222t89.5 -222t218.5 -90q130 0 219.5 90t89.5 222t-90 222t-219 90z" glyph-name="Ograve" horiz-adv-x="863" unicode="Ò"/><glyph d="M435 750h-40l66 102h64zM431 707q148 0 252.5 -104.5t104.5 -252.5t-104.5 -252.5t-252.5 -104.5t-252 104.5t-104 252.5t104 252.5t252 104.5zM431 662q-129 0 -218.5 -90t-89.5 -222t89.5 -222t218.5 -90q130 0 219.5 90t89.5 222t-90 222t-219 90z" glyph-name="Oacute" horiz-adv-x="863" unicode="Ó"/><glyph d="M564 750h-46l-87 70l-88 -70h-46l115 107h38zM431 707q148 0 252.5 -104.5t104.5 -252.5t-104.5 -252.5t-252.5 -104.5t-252 104.5t-104 252.5t104 252.5t252 104.5zM431 662q-129 0 -218.5 -90t-89.5 -222t89.5 -222t218.5 -90q130 0 219.5 90t89.5 222t-90 222t-219 90 z" glyph-name="Ocircumflex" horiz-adv-x="863" unicode="Ô"/><glyph d="M570 845l-15 -42q-20 -60 -63 -61q-27 -1 -50 22l-39 39q-16 16 -35 16q-29 -1 -42 -44l-7 -25h-29l14 42q20 60 63 61q28 1 50 -22l39 -39q16 -16 35 -16q16 0 25.5 10.5t16.5 33.5l7 25h30zM431 707q148 0 252.5 -104.5t104.5 -252.5t-104.5 -252.5t-252.5 -104.5 t-252 104.5t-104 252.5t104 252.5t252 104.5zM431 662q-129 0 -218.5 -90t-89.5 -222t89.5 -222t218.5 -90q130 0 219.5 90t89.5 222t-90 222t-219 90z" glyph-name="Otilde" horiz-adv-x="863" unicode="Õ"/><glyph d="M330 750q-13 0 -21.5 8t-8.5 20t8.5 20t21.5 8t21.5 -8t8.5 -20t-8.5 -20t-21.5 -8zM534 750q-13 0 -21.5 8t-8.5 20t8.5 20t21.5 8t21.5 -8t8.5 -20t-8.5 -20t-21.5 -8zM431 707q148 0 252.5 -104.5t104.5 -252.5t-104.5 -252.5t-252.5 -104.5t-252 104.5t-104 252.5 t104 252.5t252 104.5zM431 662q-129 0 -218.5 -90t-89.5 -222t89.5 -222t218.5 -90q130 0 219.5 90t89.5 222t-90 222t-219 90z" glyph-name="Odieresis" horiz-adv-x="863" unicode="Ö"/><glyph d="M382 436l-134 -134l134 -134l-24 -24l-134 134l-134 -134l-24 24l134 134l-134 134l24 25l134 -135l134 135z" glyph-name="multiply" horiz-adv-x="449" unicode="×"/><glyph d="M788 700l-99 -103q99 -104 99 -247q0 -148 -104.5 -252.5t-252.5 -104.5q-136 0 -237 90l-80 -83h-39l99 103q-99 104 -99 247q0 148 104 252.5t252 104.5q136 0 238 -91l80 84h39zM123 350q0 -127 82 -215l432 449q-86 78 -206 78q-129 0 -218.5 -90t-89.5 -222z M740 350q0 126 -83 214l-432 -448q88 -78 206 -78q130 0 219.5 90t89.5 222z" glyph-name="Oslash" horiz-adv-x="863" unicode="Ø"/><glyph d="M372 852l66 -102h-39l-91 102h64zM688 700v-395q0 -141 -77.5 -226.5t-209.5 -85.5q-131 0 -208 85.5t-77 226.5v395h48v-394q0 -124 62 -196t175 -72q114 0 176.5 72t62.5 196v394h48z" glyph-name="Ugrave" horiz-adv-x="795" unicode="Ù"/><glyph d="M405 750h-40l66 102h64zM688 700v-395q0 -141 -77.5 -226.5t-209.5 -85.5q-131 0 -208 85.5t-77 226.5v395h48v-394q0 -124 62 -196t175 -72q114 0 176.5 72t62.5 196v394h48z" glyph-name="Uacute" horiz-adv-x="795" unicode="Ú"/><glyph d="M489 750l-87 70l-88 -70h-46l115 107h38l114 -107h-46zM688 700v-395q0 -141 -77.5 -226.5t-209.5 -85.5q-131 0 -208 85.5t-77 226.5v395h48v-394q0 -124 62 -196t175 -72q114 0 176.5 72t62.5 196v394h48z" glyph-name="Ucircumflex" horiz-adv-x="795" unicode="Û"/><glyph d="M302 750q-13 0 -21.5 8t-8.5 20t8.5 20t21.5 8t21.5 -8t8.5 -20t-8.5 -20t-21.5 -8zM505 750q-13 0 -21.5 8t-8.5 20t8.5 20t21.5 8t21.5 -8t8.5 -20t-8.5 -20t-21.5 -8zM688 700v-395q0 -141 -77.5 -226.5t-209.5 -85.5q-131 0 -208 85.5t-77 226.5v395h48v-394 q0 -124 62 -196t175 -72q114 0 176.5 72t62.5 196v394h48z" glyph-name="Udieresis" horiz-adv-x="795" unicode="Ü"/><glyph d="M350 750h-40l66 102h64zM371 0h-48v242l-275 458h55l244 -401l244 401h55l-275 -457v-243z" glyph-name="Yacute" horiz-adv-x="694" unicode="Ý"/><glyph d="M164 611h168q133 0 218.5 -65.5t85.5 -185.5q0 -119 -85.5 -184.5t-218.5 -65.5h-168v-110h-48v700h48v-89zM164 154h170q111 0 183 51.5t72 154.5q0 104 -72 155.5t-183 51.5h-170v-413z" glyph-name="Thorn" horiz-adv-x="711" unicode="Þ"/><glyph d="M321 707h32q115 0 170 -52.5t55 -129.5q0 -127 -120 -160q70 -15 107.5 -61.5t37.5 -114.5q0 -90 -66 -143t-184 -53h-139v45h139q95 0 149.5 40t54.5 115q0 70 -45.5 109.5t-137.5 39.5h-92v44h70q180 0 180 135q0 64 -43.5 102.5t-134.5 38.5h-34q-91 0 -134.5 -39.5 t-43.5 -103.5v-519h-46v523q0 77 55 130.5t170 53.5z" glyph-name="germandbls" horiz-adv-x="662" unicode="ß"/><glyph d="M297 673l66 -102h-39l-91 102h64zM577 0h-35l-2 133q-29 -62 -88.5 -100.5t-132.5 -38.5q-106 0 -179.5 74.5t-73.5 181.5t73.5 182t179.5 75q73 0 132.5 -38.5t88.5 -101.5l2 133h35v-500zM323 37q87 0 149 61.5t62 151.5t-62 152t-149 62q-88 0 -149.5 -62t-61.5 -152 t61.5 -151.5t149.5 -61.5z" glyph-name="agrave" unicode="à"/><glyph d="M330 571h-40l66 102h64zM577 0h-35l-2 133q-29 -62 -88.5 -100.5t-132.5 -38.5q-106 0 -179.5 74.5t-73.5 181.5t73.5 182t179.5 75q73 0 132.5 -38.5t88.5 -101.5l2 133h35v-500zM323 37q87 0 149 61.5t62 151.5t-62 152t-149 62q-88 0 -149.5 -62t-61.5 -152 t61.5 -151.5t149.5 -61.5z" glyph-name="aacute" unicode="á"/><glyph d="M410 571l-87 70l-88 -70h-46l115 108h38l114 -108h-46zM577 0h-35l-2 133q-29 -62 -88.5 -100.5t-132.5 -38.5q-106 0 -179.5 74.5t-73.5 181.5t73.5 182t179.5 75q73 0 132.5 -38.5t88.5 -101.5l2 133h35v-500zM323 37q87 0 149 61.5t62 151.5t-62 152t-149 62 q-88 0 -149.5 -62t-61.5 -152t61.5 -151.5t149.5 -61.5z" glyph-name="acircumflex" unicode="â"/><glyph d="M461 666l-15 -42q-20 -60 -63 -61q-28 0 -50 22l-39 40q-17 15 -35 15q-16 0 -25.5 -10.5t-16.5 -33.5l-7 -25h-29l14 43q21 60 63 60q28 1 50 -21l39 -40q18 -16 35 -15q17 0 26 10t16 34l7 24h30zM577 0h-35l-2 133q-29 -62 -88.5 -100.5t-132.5 -38.5 q-106 0 -179.5 74.5t-73.5 181.5t73.5 182t179.5 75q73 0 132.5 -38.5t88.5 -101.5l2 133h35v-500zM323 37q87 0 149 61.5t62 151.5t-62 152t-149 62q-88 0 -149.5 -62t-61.5 -152t61.5 -151.5t149.5 -61.5z" glyph-name="atilde" unicode="ã"/><glyph d="M221 571q-13 0 -21.5 8.5t-8.5 19.5q0 12 8.5 20.5t21.5 8.5t21.5 -8.5t8.5 -20.5q0 -11 -8.5 -19.5t-21.5 -8.5zM425 571q-13 0 -21.5 8.5t-8.5 19.5q0 12 8.5 20.5t21.5 8.5t21.5 -8.5t8.5 -20.5q0 -11 -8.5 -19.5t-21.5 -8.5zM577 0h-35l-2 133q-29 -62 -88.5 -100.5 t-132.5 -38.5q-106 0 -179.5 74.5t-73.5 181.5t73.5 182t179.5 75q73 0 132.5 -38.5t88.5 -101.5l2 133h35v-500zM323 37q87 0 149 61.5t62 151.5t-62 152t-149 62q-88 0 -149.5 -62t-61.5 -152t61.5 -151.5t149.5 -61.5z" glyph-name="adieresis" unicode="ä"/><glyph d="M322 725q32 0 54.5 -22.5t22.5 -53.5q0 -32 -22.5 -55t-54.5 -23t-54 23t-22 55q0 31 22 53.5t54 22.5zM323 696q-20 0 -33 -14t-13 -33q0 -20 13 -34.5t33 -14.5t33 14.5t13 34.5q0 19 -13 33t-33 14zM577 0h-35l-2 133q-29 -62 -88.5 -100.5t-132.5 -38.5 q-106 0 -179.5 74.5t-73.5 181.5t73.5 182t179.5 75q73 0 132.5 -38.5t88.5 -101.5l2 133h35v-500zM323 37q87 0 149 61.5t62 151.5t-62 152t-149 62q-88 0 -149.5 -62t-61.5 -152t61.5 -151.5t149.5 -61.5z" glyph-name="aring" unicode="å"/><glyph d="M319 507q73 0 132.5 -38.5t88.5 -101.5l2 133h35v-123q28 59 84 94.5t128 35.5q81 0 140.5 -41.5t86.5 -110.5q10 -25 13 -59.5t-3 -53.5h-446q0 -95 60.5 -150.5t158.5 -56.5q103 0 184 63l26 -28q-93 -76 -210 -76q-78 1 -136 34.5t-86 92.5v-121h-35l-2 133 q-29 -62 -88.5 -100.5t-132.5 -38.5q-106 0 -179.5 74.5t-73.5 181.5t73.5 182t179.5 75zM790 465q-87 0 -144.5 -54.5t-62.5 -135.5h403q2 35 -11 67q-22 56 -70 89.5t-115 33.5zM323 464q-88 0 -149.5 -62t-61.5 -152t61.5 -151.5t149.5 -61.5q87 0 149 61.5t62 151.5 t-62 152t-149 62z" glyph-name="ae" horiz-adv-x="1092" unicode="æ"/><glyph d="M322 37q101 0 169 79l28 -30q-77 -92 -197 -92l-10 -41q31 9 54 -7t23 -51q0 -39 -37 -53.5t-81 11.5v23q29 -21 56.5 -13.5t27.5 33.5q0 25 -19.5 34t-54.5 -5l18 70q-99 9 -166 82t-67 173q0 107 75 182t181 75q120 0 197 -93l-28 -29q-67 78 -169 78 q-88 0 -149.5 -61.5t-61.5 -151.5t61.5 -151.5t149.5 -61.5z" glyph-name="ccedilla" horiz-adv-x="581" unicode="ç"/><glyph d="M358 571h-39l-91 102h64zM321 507q81 0 140.5 -41.5t86.5 -110.5q10 -25 13 -59.5t-3 -53.5h-446q0 -95 60.5 -150.5t158.5 -56.5q103 0 184 63l26 -28q-93 -76 -210 -76q-118 1 -191.5 71t-73.5 185q0 108 71.5 182.5t183.5 74.5zM322 465q-87 0 -144.5 -54.5 t-62.5 -135.5h403q2 35 -11 67q-22 56 -70 89.5t-115 33.5z" glyph-name="egrave" horiz-adv-x="624" unicode="è"/><glyph d="M326 571h-40l66 102h64zM321 507q81 0 140.5 -41.5t86.5 -110.5q10 -25 13 -59.5t-3 -53.5h-446q0 -95 60.5 -150.5t158.5 -56.5q103 0 184 63l26 -28q-93 -76 -210 -76q-118 1 -191.5 71t-73.5 185q0 108 71.5 182.5t183.5 74.5zM322 465q-87 0 -144.5 -54.5 t-62.5 -135.5h403q2 35 -11 67q-22 56 -70 89.5t-115 33.5z" glyph-name="eacute" horiz-adv-x="624" unicode="é"/><glyph d="M455 571h-46l-87 70l-88 -70h-46l115 108h38zM321 507q81 0 140.5 -41.5t86.5 -110.5q10 -25 13 -59.5t-3 -53.5h-446q0 -95 60.5 -150.5t158.5 -56.5q103 0 184 63l26 -28q-93 -76 -210 -76q-118 1 -191.5 71t-73.5 185q0 108 71.5 182.5t183.5 74.5zM322 465 q-87 0 -144.5 -54.5t-62.5 -135.5h403q2 35 -11 67q-22 56 -70 89.5t-115 33.5z" glyph-name="ecircumflex" horiz-adv-x="624" unicode="ê"/><glyph d="M222 628q13 0 21.5 -8.5t8.5 -19.5q0 -12 -8.5 -20.5t-21.5 -8.5t-21.5 8.5t-8.5 20.5q0 11 8.5 19.5t21.5 8.5zM426 628q13 0 21.5 -8.5t8.5 -19.5q0 -12 -8.5 -20.5t-21.5 -8.5t-21.5 8.5t-8.5 20.5q0 11 8.5 19.5t21.5 8.5zM321 507q81 0 140.5 -41.5t86.5 -110.5 q10 -25 13 -59.5t-3 -53.5h-446q0 -95 60.5 -150.5t158.5 -56.5q103 0 184 63l26 -28q-93 -76 -210 -76q-118 1 -191.5 71t-73.5 185q0 108 71.5 182.5t183.5 74.5zM322 465q-87 0 -144.5 -54.5t-62.5 -135.5h403q2 35 -11 67q-22 56 -70 89.5t-115 33.5z" glyph-name="edieresis" horiz-adv-x="624" unicode="ë"/><glyph d="M166 673l66 -102h-40l-91 102h65zM184 0v500h45v-500h-45z" glyph-name="igrave" horiz-adv-x="329" unicode="ì"/><glyph d="M141 571h-40l66 102h64zM122 0v500h45v-500h-45z" glyph-name="iacute" horiz-adv-x="328" unicode="í"/><glyph d="M254 679l114 -108h-46l-87 70l-88 -70h-46l115 108h38zM257 0h-45v500h45v-500z" glyph-name="icircumflex" horiz-adv-x="465" unicode="î"/><glyph d="M131 571q-13 0 -21.5 8.5t-8.5 19.5q0 12 8.5 20.5t21.5 8.5t21.5 -8.5t8.5 -20.5q0 -11 -8.5 -19.5t-21.5 -8.5zM335 571q-13 0 -21.5 8.5t-8.5 19.5q0 12 8.5 20.5t21.5 8.5t21.5 -8.5t8.5 -20.5q0 -11 -8.5 -19.5t-21.5 -8.5zM213 0v500h45v-500h-45z" glyph-name="idieresis" horiz-adv-x="462" unicode="ï"/><glyph d="M570 678l-48 -43q57 -65 57 -179v-204q0 -111 -73 -185t-184 -74q-110 0 -183 74.5t-73 180.5t72.5 179.5t178.5 73.5q72 0 130.5 -38.5t86.5 -100.5l-1 94q0 98 -43 150l-80 -72l-21 22l80 72q-47 39 -129 39q-100 1 -184 -63l-27 29q91 76 211 76q100 0 161 -53l49 44z M323 36q90 0 150.5 61t60.5 151q0 89 -61.5 150t-149.5 61t-149.5 -61t-61.5 -150q0 -90 60.5 -151t150.5 -61z" glyph-name="eth" horiz-adv-x="676" unicode="ð"/><glyph d="M468 666l-15 -42q-20 -60 -63 -61q-28 0 -50 22l-39 40q-17 15 -35 15q-16 0 -25.5 -10.5t-16.5 -33.5l-7 -25h-29l14 43q21 60 63 60q28 1 50 -21l39 -40q18 -16 35 -15q17 0 26 10t16 34l7 24h30zM345 507q101 0 159.5 -61.5t58.5 -173.5v-272h-46v270q0 96 -47 145 t-130 49q-91 0 -145 -61.5t-54 -167.5v-235h-45v500h35l3 -131q28 70 87 104t124 34z" glyph-name="ntilde" horiz-adv-x="655" unicode="ñ"/><glyph d="M291 673l66 -102h-39l-91 102h64zM322 507q106 0 181.5 -75.5t75.5 -181.5t-75 -181t-182 -75q-106 0 -181 75t-75 181q0 107 75 182t181 75zM323 464q-88 0 -149.5 -62t-61.5 -152t61.5 -151.5t149.5 -61.5q87 0 149 61.5t62 151.5t-62 152t-149 62z" glyph-name="ograve" horiz-adv-x="646" unicode="ò"/><glyph d="M325 571h-40l66 102h64zM322 507q106 0 181.5 -75.5t75.5 -181.5t-75 -181t-182 -75q-106 0 -181 75t-75 181q0 107 75 182t181 75zM323 464q-88 0 -149.5 -62t-61.5 -152t61.5 -151.5t149.5 -61.5q87 0 149 61.5t62 151.5t-62 152t-149 62z" glyph-name="oacute" horiz-adv-x="646" unicode="ó"/><glyph d="M410 571l-87 70l-88 -70h-46l115 108h38l114 -108h-46zM322 507q106 0 181.5 -75.5t75.5 -181.5t-75 -181t-182 -75q-106 0 -181 75t-75 181q0 107 75 182t181 75zM323 464q-88 0 -149.5 -62t-61.5 -152t61.5 -151.5t149.5 -61.5q87 0 149 61.5t62 151.5t-62 152t-149 62 z" glyph-name="ocircumflex" horiz-adv-x="646" unicode="ô"/><glyph d="M463 666l-15 -42q-20 -60 -63 -61q-28 0 -50 22l-39 40q-17 15 -35 15q-16 0 -25.5 -10.5t-16.5 -33.5l-7 -25h-29l14 43q21 60 63 60q28 1 50 -21l39 -40q18 -16 35 -15q17 0 26 10t16 34l7 24h30zM322 507q106 0 181.5 -75.5t75.5 -181.5t-75 -181t-182 -75 q-106 0 -181 75t-75 181q0 107 75 182t181 75zM323 464q-88 0 -149.5 -62t-61.5 -152t61.5 -151.5t149.5 -61.5q87 0 149 61.5t62 151.5t-62 152t-149 62z" glyph-name="otilde" horiz-adv-x="646" unicode="õ"/><glyph d="M223 571q-13 0 -21.5 8.5t-8.5 19.5q0 12 8.5 20.5t21.5 8.5t21.5 -8.5t8.5 -20.5q0 -11 -8.5 -19.5t-21.5 -8.5zM427 571q-13 0 -21.5 8.5t-8.5 19.5q0 12 8.5 20.5t21.5 8.5t21.5 -8.5t8.5 -20.5q0 -11 -8.5 -19.5t-21.5 -8.5zM322 507q106 0 181.5 -75.5t75.5 -181.5 t-75 -181t-182 -75q-106 0 -181 75t-75 181q0 107 75 182t181 75zM323 464q-88 0 -149.5 -62t-61.5 -152t61.5 -151.5t149.5 -61.5q87 0 149 61.5t62 151.5t-62 152t-149 62z" glyph-name="odieresis" horiz-adv-x="646" unicode="ö"/><glyph d="M274 454q14 0 24 -9.5t10 -22.5t-10 -22t-24 -9t-24 9t-10 22t10 22.5t24 9.5zM480 242h-414v32h414v-32zM274 121q14 0 24 -9.5t10 -22.5t-10 -22.5t-24 -9.5t-24 9.5t-10 22.5t10 22.5t24 9.5z" glyph-name="divide" horiz-adv-x="547" unicode="÷"/><glyph d="M579 500l-70 -74q70 -75 70 -176q0 -106 -75 -181t-182 -75q-93 0 -166 60l-51 -54h-39l70 74q-70 75 -70 176q0 107 75 182t181 75q95 0 167 -61l51 54h39zM112 250q0 -83 54 -144l293 308q-60 50 -136 50q-88 0 -149.5 -62t-61.5 -152zM534 250q0 84 -55 145l-292 -309 q58 -49 136 -49q87 0 149 61.5t62 151.5z" glyph-name="oslash" horiz-adv-x="646" unicode="ø"/><glyph d="M347 571h-39l-91 102h64zM558 0h-36l-2 131q-29 -70 -88 -104t-124 -34q-100 0 -158.5 61.5t-58.5 173.5v272h45v-270q0 -96 47.5 -145t129.5 -49q91 0 145 61.5t54 167.5v235h46v-500z" glyph-name="ugrave" horiz-adv-x="650" unicode="ù"/><glyph d="M403 673l-90 -102h-40l66 102h64zM558 0h-36l-2 131q-29 -70 -88 -104t-124 -34q-100 0 -158.5 61.5t-58.5 173.5v272h45v-270q0 -96 47.5 -145t129.5 -49q91 0 145 61.5t54 167.5v235h46v-500z" glyph-name="uacute" horiz-adv-x="650" unicode="ú"/><glyph d="M401 571l-87 70l-88 -70h-46l115 108h38l114 -108h-46zM558 0h-36l-2 131q-29 -70 -88 -104t-124 -34q-100 0 -158.5 61.5t-58.5 173.5v272h45v-270q0 -96 47.5 -145t129.5 -49q91 0 145 61.5t54 167.5v235h46v-500z" glyph-name="ucircumflex" horiz-adv-x="650" unicode="û"/><glyph d="M219 628q13 0 21.5 -8.5t8.5 -20.5q0 -11 -8.5 -19.5t-21.5 -8.5t-21.5 8.5t-8.5 19.5q0 12 8.5 20.5t21.5 8.5zM422 628q13 0 21.5 -8.5t8.5 -20.5q0 -11 -8.5 -19.5t-21.5 -8.5t-21.5 8.5t-8.5 19.5q0 12 8.5 20.5t21.5 8.5zM558 0h-36l-2 131q-29 -70 -88 -104 t-124 -34q-100 0 -158.5 61.5t-58.5 173.5v272h45v-270q0 -96 47.5 -145t129.5 -49q91 0 145 61.5t54 167.5v235h46v-500z" glyph-name="udieresis" horiz-adv-x="650" unicode="ü"/><glyph d="M318 571h-40l66 102h64zM563 500v-438q0 -118 -61.5 -185t-177.5 -68q-120 0 -211 76l27 29q84 -64 184 -63q96 0 144.5 52.5t48.5 151.5v74q-28 -67 -85 -99.5t-119 -32.5q-100 0 -158.5 61.5t-58.5 173.5v268h45v-266q0 -96 47.5 -145t129.5 -49q91 0 145 61.5 t54 167.5v231h46z" glyph-name="yacute" horiz-adv-x="655" unicode="ý"/><glyph d="M146 700v-328q28 60 85.5 97.5t127.5 37.5q106 0 179.5 -75t73.5 -182t-73.5 -181.5t-179.5 -74.5q-70 0 -127.5 37t-85.5 97v-312h-45v884h45zM355 463q-88 0 -149.5 -61.5t-61.5 -151.5t61.5 -151.5t149.5 -61.5t149.5 61.5t61.5 151.5t-61.5 151.5t-149.5 61.5z" glyph-name="thorn" horiz-adv-x="678" unicode="þ"/><glyph d="M218 628q13 0 21.5 -8.5t8.5 -20.5q0 -11 -8.5 -19.5t-21.5 -8.5t-21.5 8.5t-8.5 19.5q0 12 8.5 20.5t21.5 8.5zM422 628q13 0 21.5 -8.5t8.5 -20.5q0 -11 -8.5 -19.5t-21.5 -8.5t-21.5 8.5t-8.5 19.5q0 12 8.5 20.5t21.5 8.5zM141 500v-266q0 -96 47.5 -145t129.5 -49 q91 0 145 61.5t54 167.5v231h46v-438q0 -118 -61.5 -185t-177.5 -68q-120 0 -211 76l27 29q84 -64 184 -63q96 0 144.5 52.5t48.5 151.5v74q-28 -67 -85 -99.5t-119 -32.5q-100 0 -158.5 61.5t-58.5 173.5v268h45z" glyph-name="ydieresis" horiz-adv-x="655" unicode="ÿ"/><glyph d="M476 750h-250v36h250v-36zM189 215l-89 -215h-52l292 700h24l291 -700h-52l-89 215h-325zM352 609l-145 -349h290z" glyph-name="Amacron" horiz-adv-x="704" unicode="Ā"/><glyph d="M450 571h-250v36h250v-36zM577 0h-35l-2 133q-29 -62 -88.5 -100.5t-132.5 -38.5q-106 0 -179.5 74.5t-73.5 181.5t73.5 182t179.5 75q73 0 132.5 -38.5t88.5 -101.5l2 133h35v-500zM323 37q87 0 149 61.5t62 151.5t-62 152t-149 62q-88 0 -149.5 -62t-61.5 -152 t61.5 -151.5t149.5 -61.5z" glyph-name="amacron" unicode="ā"/><glyph d="M453 869h35q0 -51 -39.5 -85t-96.5 -34t-96.5 34t-39.5 85h35q0 -36 29 -60t72 -24t72 24t29 60zM655 0h-52l-89 215h-325l-89 -215h-52l292 700h24zM207 260h290l-145 349z" glyph-name="Abreve" horiz-adv-x="704" unicode="Ă"/><glyph d="M424 690h35q0 -51 -39.5 -85t-96.5 -34t-96.5 34t-39.5 85h35q0 -36 29 -60t72 -24t72 24t29 60zM319 507q73 0 132.5 -38.5t88.5 -101.5l2 133h35v-500h-35l-2 133q-29 -62 -88.5 -100.5t-132.5 -38.5q-106 0 -179.5 74.5t-73.5 181.5t73.5 182t179.5 75zM323 464 q-88 0 -149.5 -62t-61.5 -152t61.5 -151.5t149.5 -61.5q87 0 149 61.5t62 151.5t-62 152t-149 62z" glyph-name="abreve" unicode="ă"/><glyph d="M581 -75q0 -28 19.5 -42.5t47.5 -14.5h6v-33h-5q-40 0 -68 21t-28 61q0 58 79 83h-29l-89 215h-325l-89 -215h-52l292 700h24l291 -700h1q-75 -25 -75 -75zM497 260l-145 349l-145 -349h290z" glyph-name="Aogonek" horiz-adv-x="704" unicode="Ą"/><glyph d="M503 -75q0 -28 19.5 -42.5t47.5 -14.5h6v-33h-5q-40 0 -68 21t-28 61q0 58 79 83h-12l-2 133q-29 -62 -88.5 -100.5t-132.5 -38.5q-106 0 -179.5 74.5t-73.5 181.5t73.5 182t179.5 75q73 0 132.5 -38.5t88.5 -101.5l2 133h35v-500h1q-75 -25 -75 -75zM323 37 q87 0 149 61.5t62 151.5t-62 152t-149 62q-88 0 -149.5 -62t-61.5 -152t61.5 -151.5t149.5 -61.5z" glyph-name="aogonek" unicode="ą"/><glyph d="M431 750h-40l66 102h64zM431 707q158 0 264 -117l-31 -29q-93 101 -233 101q-129 0 -218.5 -90t-89.5 -222t89.5 -222t218.5 -90q141 0 233 101l31 -31q-105 -115 -264 -115q-148 0 -252 104.5t-104 252.5t104 252.5t252 104.5z" glyph-name="Cacute" horiz-adv-x="753" unicode="Ć"/><glyph d="M301 571h-40l66 102h64zM322 507q120 0 197 -93l-28 -29q-67 78 -169 78q-88 0 -149.5 -61.5t-61.5 -151.5t61.5 -151.5t149.5 -61.5q101 0 169 79l28 -30q-77 -92 -197 -92q-106 0 -181 75t-75 181q0 107 75 182t181 75z" glyph-name="cacute" horiz-adv-x="581" unicode="ć"/><glyph d="M431 806q13 0 21.5 -8t8.5 -20t-8.5 -20t-21.5 -8t-21.5 8t-8.5 20t8.5 20t21.5 8zM431 707q158 0 264 -117l-31 -29q-93 101 -233 101q-129 0 -218.5 -90t-89.5 -222t89.5 -222t218.5 -90q141 0 233 101l31 -31q-105 -115 -264 -115q-148 0 -252 104.5t-104 252.5 t104 252.5t252 104.5z" glyph-name="Cdotaccent" horiz-adv-x="753" unicode="Ċ"/><glyph d="M322 628q13 0 21.5 -8.5t8.5 -20.5q0 -11 -8.5 -19.5t-21.5 -8.5t-21.5 8.5t-8.5 19.5q0 12 8.5 20.5t21.5 8.5zM322 507q120 0 197 -93l-28 -29q-67 78 -169 78q-88 0 -149.5 -61.5t-61.5 -151.5t61.5 -151.5t149.5 -61.5q101 0 169 79l28 -30q-77 -92 -197 -92 q-106 0 -181 75t-75 181q0 107 75 182t181 75z" glyph-name="cdotaccent" horiz-adv-x="581" unicode="ċ"/><glyph d="M450 750h-38l-115 107h46l88 -70l87 70h46zM431 707q158 0 264 -117l-31 -29q-93 101 -233 101q-129 0 -218.5 -90t-89.5 -222t89.5 -222t218.5 -90q141 0 233 101l31 -31q-105 -115 -264 -115q-148 0 -252 104.5t-104 252.5t104 252.5t252 104.5z" glyph-name="Ccaron" horiz-adv-x="753" unicode="Č"/><glyph d="M342 571h-38l-115 108h46l88 -70l87 70h46zM322 507q120 0 197 -93l-28 -29q-67 78 -169 78q-88 0 -149.5 -61.5t-61.5 -151.5t61.5 -151.5t149.5 -61.5q101 0 169 79l28 -30q-77 -92 -197 -92q-106 0 -181 75t-75 181q0 107 75 182t181 75z" glyph-name="ccaron" horiz-adv-x="581" unicode="č"/><glyph d="M369 750h-38l-115 107h46l88 -70l87 70h46zM116 700h209q151 0 253.5 -97.5t102.5 -252.5t-102.5 -252.5t-253.5 -97.5h-209v700zM164 655v-610h161q132 0 220 83t88 222t-88 222t-220 83h-161z" glyph-name="Dcaron" horiz-adv-x="756" unicode="Ď"/><glyph d="M577 0h-35l-2 133q-29 -62 -88.5 -100.5t-132.5 -38.5q-106 0 -179.5 74.5t-73.5 181.5t73.5 182t179.5 75q70 0 127.5 -37.5t85.5 -97.5v328h45v-700zM649 598h-40l66 102h64zM323 37q87 0 149 61.5t62 151.5t-62 152t-149 62q-88 0 -149.5 -62t-61.5 -152t61.5 -151.5 t149.5 -61.5z" glyph-name="dcaron" horiz-adv-x="836" unicode="ď"/><glyph d="M193 700h209q151 0 253.5 -97.5t102.5 -252.5t-102.5 -252.5t-253.5 -97.5h-209v335h-77v33h77v332zM241 45h161q132 0 220 83t88 222t-88 222t-220 83h-161v-287h124v-33h-124v-290z" glyph-name="Dcroat" horiz-adv-x="833" unicode="Đ"/><glyph d="M661 565h-84v-565h-35l-2 133q-29 -62 -88.5 -100.5t-132.5 -38.5q-106 0 -179.5 74.5t-73.5 181.5t73.5 182t179.5 75q70 0 127.5 -37.5t85.5 -97.5v193h-84v36h84v99h45v-99h84v-36zM323 37q87 0 149 61.5t62 151.5t-62 152t-149 62q-88 0 -149.5 -62t-61.5 -152 t61.5 -151.5t149.5 -61.5z" glyph-name="dcroat" horiz-adv-x="757" unicode="đ"/><glyph d="M451 750h-250v36h250v-36zM547 655h-383v-278h364v-44h-364v-288h383v-45h-431v700h431v-45z" glyph-name="Emacron" horiz-adv-x="606" unicode="Ē"/><glyph d="M445 571h-250v36h250v-36zM321 507q81 0 140.5 -41.5t86.5 -110.5q10 -25 13 -59.5t-3 -53.5h-446q0 -95 60.5 -150.5t158.5 -56.5q103 0 184 63l26 -28q-93 -76 -210 -76q-118 1 -191.5 71t-73.5 185q0 108 71.5 182.5t183.5 74.5zM322 465q-87 0 -144.5 -54.5 t-62.5 -135.5h403q2 35 -11 67q-22 56 -70 89.5t-115 33.5z" glyph-name="emacron" horiz-adv-x="624" unicode="ē"/><glyph d="M325 806q13 0 21.5 -8t8.5 -20t-8.5 -20t-21.5 -8t-21.5 8t-8.5 20t8.5 20t21.5 8zM547 655h-383v-278h364v-44h-364v-288h383v-45h-431v700h431v-45z" glyph-name="Edotaccent" horiz-adv-x="606" unicode="Ė"/><glyph d="M322 628q13 0 21.5 -8.5t8.5 -20.5q0 -11 -8.5 -19.5t-21.5 -8.5t-21.5 8.5t-8.5 19.5q0 12 8.5 20.5t21.5 8.5zM321 507q81 0 140.5 -41.5t86.5 -110.5q10 -25 13 -59.5t-3 -53.5h-446q0 -95 60.5 -150.5t158.5 -56.5q103 0 184 63l26 -28q-93 -76 -210 -76 q-118 1 -191.5 71t-73.5 185q0 108 71.5 182.5t183.5 74.5zM322 465q-87 0 -144.5 -54.5t-62.5 -135.5h403q2 35 -11 67q-22 56 -70 89.5t-115 33.5z" glyph-name="edotaccent" horiz-adv-x="624" unicode="ė"/><glyph d="M473 -75q0 -28 19.5 -42.5t47.5 -14.5h6v-33h-5q-40 0 -68 21t-28 61q0 58 79 83h-408v700h431v-45h-383v-278h364v-44h-364v-288h383v-45h1q-75 -25 -75 -75z" glyph-name="Eogonek" horiz-adv-x="606" unicode="Ę"/><glyph d="M548 355q10 -25 13 -59.5t-3 -53.5h-446q0 -95 60.5 -150.5t158.5 -56.5q103 0 184 63l26 -28q-69 -56 -152 -71q-72 -25 -72 -74q0 -28 19.5 -42.5t47.5 -14.5h6v-33h-5q-40 0 -68 21t-28 61q0 51 64 78l-22 -1q-118 1 -191.5 71t-73.5 185q0 108 71.5 182.5t183.5 74.5 q81 0 140.5 -41.5t86.5 -110.5zM115 275h403q2 35 -11 67q-22 56 -70 89.5t-115 33.5q-87 0 -144.5 -54.5t-62.5 -135.5z" glyph-name="eogonek" horiz-adv-x="624" unicode="ę"/><glyph d="M353 750h-38l-115 107h46l88 -70l87 70h46zM547 655h-383v-278h364v-44h-364v-288h383v-45h-431v700h431v-45z" glyph-name="Ecaron" horiz-adv-x="606" unicode="Ě"/><glyph d="M341 571h-38l-115 108h46l88 -70l87 70h46zM321 507q81 0 140.5 -41.5t86.5 -110.5q10 -25 13 -59.5t-3 -53.5h-446q0 -95 60.5 -150.5t158.5 -56.5q103 0 184 63l26 -28q-93 -76 -210 -76q-118 1 -191.5 71t-73.5 185q0 108 71.5 182.5t183.5 74.5zM322 465 q-87 0 -144.5 -54.5t-62.5 -135.5h403q2 35 -11 67q-22 56 -70 89.5t-115 33.5z" glyph-name="ecaron" horiz-adv-x="624" unicode="ě"/><glyph d="M532 869h35q0 -51 -39.5 -85t-96.5 -34t-96.5 34t-39.5 85h35q0 -36 29 -60t72 -24t72 24t29 60zM431 707q158 0 264 -117l-31 -29q-93 101 -233 101q-129 0 -218.5 -90t-89.5 -222t89.5 -222.5t218.5 -90.5q128 0 216 88v194h-224v38h272v-249q-105 -115 -264 -115 q-148 0 -252 104.5t-104 252.5t104 252.5t252 104.5z" glyph-name="Gbreve" horiz-adv-x="801" unicode="Ğ"/><glyph d="M419 690h35q0 -51 -39.5 -85t-96.5 -34t-96.5 34t-39.5 85h35q0 -36 29 -60t72 -24t72 24t29 60zM314 507q72 0 131.5 -38t88.5 -100l2 131h35v-438q0 -118 -61.5 -185t-177.5 -68q-118 0 -211 76l27 29q84 -64 184 -63q96 0 144.5 52.5t48.5 151.5v75q-27 -59 -84 -95.5 t-127 -36.5q-106 0 -179.5 74t-73.5 180t73.5 180.5t179.5 74.5zM318 464q-87 0 -149 -61.5t-62 -150.5t61.5 -150t149.5 -61q87 0 149 61t62 150t-62 150.5t-149 61.5z" glyph-name="gbreve" horiz-adv-x="668" unicode="ğ"/><glyph d="M431 806q13 0 21.5 -8t8.5 -20t-8.5 -20t-21.5 -8t-21.5 8t-8.5 20t8.5 20t21.5 8zM431 707q158 0 264 -117l-31 -29q-93 101 -233 101q-129 0 -218.5 -90t-89.5 -222t89.5 -222.5t218.5 -90.5q128 0 216 88v194h-224v38h272v-249q-105 -115 -264 -115q-148 0 -252 104.5 t-104 252.5t104 252.5t252 104.5z" glyph-name="Gdotaccent" horiz-adv-x="801" unicode="Ġ"/><glyph d="M317 628q13 0 21.5 -8.5t8.5 -20.5q0 -11 -8.5 -19.5t-21.5 -8.5t-21.5 8.5t-8.5 19.5q0 12 8.5 20.5t21.5 8.5zM314 507q72 0 131.5 -38t88.5 -100l2 131h35v-438q0 -118 -61.5 -185t-177.5 -68q-118 0 -211 76l27 29q84 -64 184 -63q96 0 144.5 52.5t48.5 151.5v75 q-27 -59 -84 -95.5t-127 -36.5q-106 0 -179.5 74t-73.5 180t73.5 180.5t179.5 74.5zM318 464q-87 0 -149 -61.5t-62 -150.5t61.5 -150t149.5 -61q87 0 149 61t62 150t-62 150.5t-149 61.5z" glyph-name="gdotaccent" horiz-adv-x="668" unicode="ġ"/><glyph d="M431 707q158 0 264 -117l-31 -29q-93 101 -233 101q-129 0 -218.5 -90t-89.5 -222t89.5 -222.5t218.5 -90.5q128 0 216 88v194h-224v38h272v-249q-105 -115 -264 -115q-148 0 -252 104.5t-104 252.5t104 252.5t252 104.5zM392 -171h-40l66 102h64z" glyph-name="Gcommaaccent" horiz-adv-x="801" unicode="Ģ"/><glyph d="M314 507q72 0 131.5 -38t88.5 -100l2 131h35v-438q0 -118 -61.5 -185t-177.5 -68q-118 0 -211 76l27 29q84 -64 184 -63q96 0 144.5 52.5t48.5 151.5v75q-27 -59 -84 -95.5t-127 -36.5q-106 0 -179.5 74t-73.5 180t73.5 180.5t179.5 74.5zM318 464q-87 0 -149 -61.5 t-62 -150.5t61.5 -150t149.5 -61q87 0 149 61t62 150t-62 150.5t-149 61.5zM280 -352h-40l66 102h64z" glyph-name="gcommaaccent" horiz-adv-x="668" unicode="ģ"/><glyph d="M822 500h-94v-500h-48v333h-423v-333h-48v500h-93v32h93v168h48v-168h423v168h48v-168h94v-32zM680 500h-423v-122h423v122z" glyph-name="Hbar" horiz-adv-x="939" unicode="Ħ"/><glyph d="M436 507q101 0 159.5 -61.5t58.5 -173.5v-272h-46v270q0 96 -47 145t-130 49q-91 0 -145 -61.5t-54 -167.5v-235h-45v564h-86v34h86v102h45v-102h85v-34h-85v-189q29 67 86 99.5t118 32.5z" glyph-name="hbar" horiz-adv-x="745" unicode="ħ"/><glyph d="M373 750h-250v36h250v-36zM274 45h81v-45h-210v45h81v610h-81v45h210v-45h-81v-610z" glyph-name="Imacron" horiz-adv-x="497" unicode="Ī"/><glyph d="M351 571h-250v36h250v-36zM205 0v500h45v-500h-45z" glyph-name="imacron" horiz-adv-x="448" unicode="ī"/><glyph d="M252 -75q0 -28 19.5 -42.5t47.5 -14.5h6v-33h-5q-40 0 -68 21t-28 61q0 58 79 83h-187v45h81v610h-81v45h210v-45h-81v-610h81v-45h1q-75 -25 -75 -75z" glyph-name="Iogonek" horiz-adv-x="443" unicode="Į"/><glyph d="M192 571q-13 0 -21.5 8.5t-8.5 19.5q0 12 8.5 20.5t21.5 8.5t21.5 -8.5t8.5 -20.5q0 -11 -8.5 -19.5t-21.5 -8.5zM214 0h1q-75 -25 -75 -75q0 -28 19.5 -42.5t47.5 -14.5h6v-33h-4q-40 0 -68.5 21t-28.5 61q0 58 79 83h-22v500h45v-500z" glyph-name="iogonek" horiz-adv-x="318" unicode="į"/><glyph d="M223 750q-13 0 -21.5 8t-8.5 20t8.5 20t21.5 8t21.5 -8t8.5 -20t-8.5 -20t-21.5 -8zM245 45h81v-45h-210v45h81v610h-81v45h210v-45h-81v-610z" glyph-name="Idotaccent" horiz-adv-x="443" unicode="İ"/><glyph d="M101 0v500h45v-500h-45z" glyph-name="dotlessi" horiz-adv-x="243" unicode="ı"/><glyph d="M326 655h-81v-610h81v-45h-210v45h81v610h-81v45h210v-45zM799 700v-471q0 -108 -58 -172t-163 -64t-163 64t-58 172v23h48v-27q0 -85 44 -136t129 -51t129 51t44 136v430h-257v45h305z" glyph-name="IJ" horiz-adv-x="873" unicode="Ĳ"/><glyph d="M131 628q13 0 21.5 -8.5t8.5 -20.5q0 -11 -8.5 -19.5t-21.5 -8.5t-21.5 8.5t-8.5 19.5q0 12 8.5 20.5t21.5 8.5zM284 628q13 0 21.5 -8.5t8.5 -20.5q0 -11 -8.5 -19.5t-21.5 -8.5t-21.5 8.5t-8.5 19.5q0 12 8.5 20.5t21.5 8.5zM154 0h-45v500h45v-500zM308 -184h-46v684 h46v-684z" glyph-name="ij" horiz-adv-x="411" unicode="ĳ"/><glyph d="M634 700l-148 -227q-25 -38 -37.5 -55.5t-29 -33.5t-33.5 -24q31 -10 53 -35t61 -85l156 -240h-55l-142 220q-26 40 -37 54.5t-30 32.5t-39 22.5t-51 4.5h-138v-334h-48v700h48v-321h124q31 0 51 4.5t39 22.5t30 32.5t37 54.5l133 207h56zM313 -171h-40l66 102h64z" glyph-name="Kcommaaccent" horiz-adv-x="705" unicode="Ķ"/><glyph d="M479 0l-79 123q-45 71 -71.5 92.5t-84.5 21.5h-98v-237h-45v700h45v-420h84q58 0 84.5 21.5t71.5 92.5l69 106h52l-85 -128q-24 -37 -35.5 -53t-28.5 -33t-34 -25q31 -9 53 -33.5t59 -82.5l95 -145h-52zM250 -171h-40l66 102h64z" glyph-name="kcommaaccent" horiz-adv-x="570" unicode="ķ"/><glyph d="M330 750h-40l66 102h64zM544 0h-428v700h48v-655h380v-45z" glyph-name="Lacute" horiz-adv-x="593" unicode="Ĺ"/><glyph d="M141 750h-40l66 102h64zM122 700h46v-700h-46v700z" glyph-name="lacute" horiz-adv-x="327" unicode="ĺ"/><glyph d="M544 0h-428v700h48v-655h380v-45zM283 -171h-40l66 102h64z" glyph-name="Lcommaaccent" horiz-adv-x="593" unicode="Ļ"/><glyph d="M162 700h46v-700h-46v700zM141 -169h-40l66 102h64z" glyph-name="lcommaaccent" horiz-adv-x="327" unicode="ļ"/><glyph d="M544 0h-428v700h48v-655h380v-45zM454 598h-40l66 102h64z" glyph-name="Lcaron" horiz-adv-x="593" unicode="Ľ"/><glyph d="M101 700h46v-700h-46v700zM217 598h-40l66 102h64z" glyph-name="lcaron" horiz-adv-x="403" unicode="ľ"/><glyph d="M544 0h-428v700h48v-655h380v-45zM511 282q-14 0 -24 10t-10 24t10 24t24 10t24 -10t10 -24t-10 -24t-24 -10z" glyph-name="Ldot" horiz-adv-x="593" unicode="Ŀ"/><glyph d="M101 700h46v-700h-46v700zM217 332q14 0 24 -10t10 -24t-10 -24t-24 -10t-24 10t-10 24t10 24t24 10z" glyph-name="ldot" horiz-adv-x="347" unicode="ŀ"/><glyph d="M603 45v-45h-428v418l-59 -26v35l59 26v247h48v-226l58 26v-35l-58 -26v-394h380z" glyph-name="Lslash" horiz-adv-x="651" unicode="Ł"/><glyph d="M266 465l-58 -26v-439h-46v419l-61 -27v35l61 27v246h46v-226l58 26v-35z" glyph-name="lslash" horiz-adv-x="362" unicode="ł"/><glyph d="M366 750h-40l66 102h64zM626 0h-24l-448 600v-600h-48v700h25l447 -600v600h48v-700z" glyph-name="Nacute" horiz-adv-x="733" unicode="Ń"/><glyph d="M344 571h-40l66 102h64zM345 507q101 0 159.5 -61.5t58.5 -173.5v-272h-46v270q0 96 -47 145t-130 49q-91 0 -145 -61.5t-54 -167.5v-235h-45v500h35l3 -131q28 70 87 104t124 34z" glyph-name="nacute" horiz-adv-x="655" unicode="ń"/><glyph d="M626 0h-24l-448 600v-600h-48v700h25l447 -600v600h48v-700zM323 -171h-40l66 102h64z" glyph-name="Ncommaaccent" horiz-adv-x="733" unicode="Ņ"/><glyph d="M345 507q101 0 159.5 -61.5t58.5 -173.5v-272h-46v270q0 96 -47 145t-130 49q-91 0 -145 -61.5t-54 -167.5v-235h-45v500h35l3 -131q28 70 87 104t124 34zM308 -171h-40l66 102h64z" glyph-name="ncommaaccent" horiz-adv-x="655" unicode="ņ"/><glyph d="M358 787l87 70h46l-114 -107h-38l-115 107h46zM626 0h-24l-448 600v-600h-48v700h25l447 -600v600h48v-700z" glyph-name="Ncaron" horiz-adv-x="733" unicode="Ň"/><glyph d="M362 571h-38l-115 108h46l88 -70l87 70h46zM345 507q101 0 159.5 -61.5t58.5 -173.5v-272h-46v270q0 96 -47 145t-130 49q-91 0 -145 -61.5t-54 -167.5v-235h-45v500h35l3 -131q28 70 87 104t124 34z" glyph-name="ncaron" horiz-adv-x="655" unicode="ň"/><glyph d="M626 700v-699q0 -99 -54.5 -147.5t-134.5 -43.5l-13 1l1 40h10q146 0 146 148v29l-427 572v-600h-48v700h25l447 -600v600h48z" glyph-name="Eng" horiz-adv-x="733" unicode="Ŋ"/><glyph d="M345 507q101 0 159.5 -61.5t58.5 -173.5v-271q0 -99 -54.5 -147.5t-134.5 -43.5l-13 1l1 40h9q146 0 146 148v271q0 96 -47 145t-130 49q-91 0 -145 -61.5t-54 -167.5v-235h-45v500h35l3 -131q28 70 87 104t124 34z" glyph-name="eng" horiz-adv-x="655" unicode="ŋ"/><glyph d="M557 750h-250v36h250v-36zM431 707q148 0 252.5 -104.5t104.5 -252.5t-104.5 -252.5t-252.5 -104.5t-252 104.5t-104 252.5t104 252.5t252 104.5zM431 662q-129 0 -218.5 -90t-89.5 -222t89.5 -222t218.5 -90q130 0 219.5 90t89.5 222t-90 222t-219 90z" glyph-name="Omacron" horiz-adv-x="863" unicode="Ō"/><glyph d="M447 571h-250v36h250v-36zM322 507q106 0 181.5 -75.5t75.5 -181.5t-75 -181t-182 -75q-106 0 -181 75t-75 181q0 107 75 182t181 75zM323 464q-88 0 -149.5 -62t-61.5 -152t61.5 -151.5t149.5 -61.5q87 0 149 61.5t62 151.5t-62 152t-149 62z" glyph-name="omacron" horiz-adv-x="646" unicode="ō"/><glyph d="M383 750h-40l66 102h64zM503 750h-40l66 102h64zM431 707q148 0 252.5 -104.5t104.5 -252.5t-104.5 -252.5t-252.5 -104.5t-252 104.5t-104 252.5t104 252.5t252 104.5zM431 662q-129 0 -218.5 -90t-89.5 -222t89.5 -222t218.5 -90q130 0 219.5 90t89.5 222t-90 222 t-219 90z" glyph-name="Ohungarumlaut" horiz-adv-x="863" unicode="Ő"/><glyph d="M268 571h-40l66 102h64zM387 571h-40l66 102h64zM322 507q106 0 181.5 -75.5t75.5 -181.5t-75 -181t-182 -75q-106 0 -181 75t-75 181q0 107 75 182t181 75zM323 464q-88 0 -149.5 -62t-61.5 -152t61.5 -151.5t149.5 -61.5q87 0 149 61.5t62 151.5t-62 152t-149 62z" glyph-name="ohungarumlaut" horiz-adv-x="647" unicode="ő"/><glyph d="M788 377h364v-44h-364v-288h383v-45h-431v198q-37 -91 -121 -148t-188 -57q-148 0 -252 104.5t-104 252.5t104 252.5t252 104.5q104 0 188 -57t121 -148v198h431v-45h-383v-278zM431 38q130 0 219.5 90t89.5 222t-90 222t-219 90t-218.5 -90t-89.5 -222t89.5 -222 t218.5 -90z" glyph-name="OE" horiz-adv-x="1229" unicode="Œ"/><glyph d="M788 507q81 0 140.5 -41.5t86.5 -110.5q10 -25 13 -59.5t-3 -53.5h-445q0 -95 60 -150.5t158 -56.5q103 0 184 63l26 -28q-93 -76 -210 -76q-90 1 -154.5 43.5t-88.5 117.5q-27 -72 -90.5 -116.5t-142.5 -44.5q-106 0 -181 75t-75 181q0 107 75 182t181 75 q79 0 143 -45.5t90 -117.5q25 73 87 118t146 45zM789 465q-87 0 -144.5 -54.5t-62.5 -135.5h403q2 35 -11 67q-22 56 -70 89.5t-115 33.5zM323 464q-88 0 -149.5 -62t-61.5 -152t61.5 -151.5t149.5 -61.5q87 0 149 61.5t62 151.5t-62 152t-149 62z" glyph-name="oe" horiz-adv-x="1091" unicode="œ"/><glyph d="M336 750h-40l66 102h64zM116 700h218q132 0 217 -64.5t85 -181.5q0 -89 -52.5 -147t-140.5 -81q63 -21 121 -112l75 -114h-55l-64 99q-44 68 -81 88.5t-99 20.5h-176v-208h-48v700zM164 655v-402h173q110 0 181 50.5t71 150.5t-71 150.5t-181 50.5h-173z" glyph-name="Racute" horiz-adv-x="688" unicode="Ŕ"/><glyph d="M237 571h-40l66 102h64zM386 464h-18q-117 0 -172 -70.5t-55 -184.5v-209h-45v500h35l4 -148q57 155 242 155h9v-43z" glyph-name="racute" horiz-adv-x="424" unicode="ŕ"/><glyph d="M116 700h218q132 0 217 -64.5t85 -181.5q0 -89 -52.5 -147t-140.5 -81q63 -21 121 -112l75 -114h-55l-64 99q-44 68 -81 88.5t-99 20.5h-176v-208h-48v700zM164 655v-402h173q110 0 181 50.5t71 150.5t-71 150.5t-181 50.5h-173zM300 -171h-40l66 102h64z" glyph-name="Rcommaaccent" horiz-adv-x="688" unicode="Ŗ"/><glyph d="M386 464h-18q-117 0 -172 -70.5t-55 -184.5v-209h-45v500h35l4 -148q57 155 242 155h9v-43zM195 -171h-40l66 102h64z" glyph-name="rcommaaccent" horiz-adv-x="424" unicode="ŗ"/><glyph d="M373 750h-38l-115 107h46l88 -70l87 70h46zM116 700h218q132 0 217 -64.5t85 -181.5q0 -89 -52.5 -147t-140.5 -81q63 -21 121 -112l75 -114h-55l-64 99q-44 68 -81 88.5t-99 20.5h-176v-208h-48v700zM164 655v-402h173q110 0 181 50.5t71 150.5t-71 150.5t-181 50.5 h-173z" glyph-name="Rcaron" horiz-adv-x="688" unicode="Ř"/><glyph d="M257 571h-38l-115 108h46l88 -70l87 70h46zM386 464h-18q-117 0 -172 -70.5t-55 -184.5v-209h-45v500h35l4 -148q57 155 242 155h9v-43z" glyph-name="rcaron" horiz-adv-x="424" unicode="ř"/><glyph d="M313 750h-40l66 102h64zM308 707h12q76 0 140.5 -30.5t103.5 -86.5l-31 -29q-35 49 -91.5 75t-121.5 26h-12q-72 0 -128 -38.5t-56 -104.5q0 -52 38.5 -81t127.5 -41l86 -12q108 -14 160.5 -59.5t52.5 -132.5q0 -89 -73.5 -144.5t-176.5 -55.5h-6q-102 0 -173.5 42.5 t-101.5 115.5l31 29q26 -66 88.5 -104t155.5 -38h6q84 0 143 42.5t59 112.5q0 66 -41 101t-128 46l-86 12q-108 14 -159 54t-51 112q0 84 69 136.5t163 52.5z" glyph-name="Sacute" horiz-adv-x="648" unicode="Ś"/><glyph d="M279 571h-40l66 102h64zM266 507h13q54 0 107.5 -25.5t82.5 -67.5l-28 -26q-24 36 -70.5 58.5t-90.5 22.5h-9q-61 0 -101.5 -26t-40.5 -69q0 -36 24.5 -58t95.5 -30l72 -8q25 -2 45.5 -6.5t42.5 -14.5t37 -24.5t24.5 -38.5t9.5 -56q0 -67 -55 -106t-137 -39h-9 q-70 0 -129.5 29t-83.5 74l28 26q19 -39 72 -64.5t113 -25.5h4q65 0 108.5 26.5t43.5 77.5q0 31 -10 51t-30 30t-37 14t-44 7l-70 8q-160 17 -160 126q0 61 52.5 98t129.5 37z" glyph-name="sacute" horiz-adv-x="547" unicode="ś"/><glyph d="M334 -7l-9 -40q31 9 54 -7t23 -51q0 -39 -37 -53.5t-81 11.5v23q29 -21 56.5 -13.5t27.5 33.5q0 25 -20 34t-54 -5l17 69q-93 4 -159 46t-94 111l31 29q26 -66 88.5 -104t155.5 -38h6q84 0 143 42.5t59 112.5q0 66 -41 101t-128 46l-86 12q-108 14 -159 54t-51 112 q0 84 69 136.5t163 52.5h12q76 0 140.5 -30.5t103.5 -86.5l-31 -29q-35 49 -91.5 75t-121.5 26h-12q-72 0 -128 -38.5t-56 -104.5q0 -52 38.5 -81t127.5 -41l86 -12q108 -14 160.5 -59.5t52.5 -132.5q0 -89 -73.5 -144.5t-176.5 -55.5h-5z" glyph-name="Scedilla" horiz-adv-x="648" unicode="Ş"/><glyph d="M287 -7l-9 -40q31 9 54 -7t23 -51q0 -39 -37 -53.5t-81 11.5v23q29 -21 56.5 -13.5t27.5 33.5q0 25 -19.5 34t-54.5 -5l17 68q-66 4 -121 32.5t-77 70.5l28 26q19 -39 72 -64.5t113 -25.5h4q65 0 108.5 26.5t43.5 77.5q0 31 -10 51t-30 30t-37 14t-44 7l-70 8 q-160 17 -160 126q0 61 52.5 98t129.5 37h13q54 0 107.5 -25.5t82.5 -67.5l-28 -26q-24 36 -70.5 58.5t-90.5 22.5h-9q-61 0 -101.5 -26t-40.5 -69q0 -36 24.5 -58t95.5 -30l72 -8q25 -2 45.5 -6.5t42.5 -14.5t37 -24.5t24.5 -38.5t9.5 -56q0 -67 -55 -106t-138 -39z" glyph-name="scedilla" horiz-adv-x="547" unicode="ş"/><glyph d="M334 750h-38l-115 107h46l88 -70l87 70h46zM308 707h12q76 0 140.5 -30.5t103.5 -86.5l-31 -29q-35 49 -91.5 75t-121.5 26h-12q-72 0 -128 -38.5t-56 -104.5q0 -52 38.5 -81t127.5 -41l86 -12q108 -14 160.5 -59.5t52.5 -132.5q0 -89 -73.5 -144.5t-176.5 -55.5h-6 q-102 0 -173.5 42.5t-101.5 115.5l31 29q26 -66 88.5 -104t155.5 -38h6q84 0 143 42.5t59 112.5q0 66 -41 101t-128 46l-86 12q-108 14 -159 54t-51 112q0 84 69 136.5t163 52.5z" glyph-name="Scaron" horiz-adv-x="648" unicode="Š"/><glyph d="M292 571h-38l-115 108h46l88 -70l87 70h46zM266 507h13q54 0 107.5 -25.5t82.5 -67.5l-28 -26q-24 36 -70.5 58.5t-90.5 22.5h-9q-61 0 -101.5 -26t-40.5 -69q0 -36 24.5 -58t95.5 -30l72 -8q25 -2 45.5 -6.5t42.5 -14.5t37 -24.5t24.5 -38.5t9.5 -56q0 -67 -55 -106 t-137 -39h-9q-70 0 -129.5 29t-83.5 74l28 26q19 -39 72 -64.5t113 -25.5h4q65 0 108.5 26.5t43.5 77.5q0 31 -10 51t-30 30t-37 14t-44 7l-70 8q-160 17 -160 126q0 61 52.5 98t129.5 37z" glyph-name="scaron" horiz-adv-x="547" unicode="š"/><glyph d="M311 0l-11 -47q31 9 54 -7t23 -51q0 -39 -37 -53.5t-81 11.5v23q29 -21 56.5 -13.5t27.5 33.5q0 25 -19.5 34t-54.5 -5l19 75h-11v655h-229v45h506v-45h-229v-655h-14z" glyph-name="Tcedilla" horiz-adv-x="602" unicode="Ţ"/><glyph d="M174 0l-11 -47q31 9 54 -7t23 -51q0 -39 -37 -53.5t-81 11.5v23q29 -21 56.5 -13.5t27.5 33.5q0 25 -20 34t-54 -5l19 75h-8v457h-77v43h77v168h45v-168h77v-43h-77v-457h-14z" glyph-name="tcedilla" horiz-adv-x="322" unicode="ţ"/><glyph d="M321 750h-38l-115 107h46l88 -70l87 70h46zM325 655v-655h-48v655h-229v45h506v-45h-229z" glyph-name="Tcaron" horiz-adv-x="602" unicode="Ť"/><glyph d="M281 598h-40l66 102h64zM188 457v-457h-45v457h-77v43h77v168h45v-168h77v-43h-77z" glyph-name="tcaron" horiz-adv-x="427" unicode="ť"/><glyph d="M325 655v-267h101v-36h-101v-352h-48v352h-101v36h101v267h-229v45h506v-45h-229z" glyph-name="Tbar" horiz-adv-x="602" unicode="Ŧ"/><glyph d="M188 457v-116h77v-43h-77v-298h-45v298h-77v43h77v116h-77v43h77v168h45v-168h77v-43h-77z" glyph-name="tbar" horiz-adv-x="322" unicode="ŧ"/><glyph d="M527 750h-250v36h250v-36zM688 700v-395q0 -141 -77.5 -226.5t-209.5 -85.5q-131 0 -208 85.5t-77 226.5v395h48v-394q0 -124 62 -196t175 -72q114 0 176.5 72t62.5 196v394h48z" glyph-name="Umacron" horiz-adv-x="795" unicode="Ū"/><glyph d="M440 571h-250v36h250v-36zM558 0h-36l-2 131q-29 -70 -88 -104t-124 -34q-100 0 -158.5 61.5t-58.5 173.5v272h45v-270q0 -96 47.5 -145t129.5 -49q91 0 145 61.5t54 167.5v235h46v-500z" glyph-name="umacron" horiz-adv-x="650" unicode="ū"/><glyph d="M402 904q32 0 54.5 -22.5t22.5 -53.5q0 -32 -22.5 -55t-54.5 -23t-54 23t-22 55q0 31 22 53.5t54 22.5zM402 875q-20 0 -33 -14t-13 -33q0 -21 12.5 -35t33.5 -14q20 0 33 14t13 35q0 19 -13 33t-33 14zM688 700v-395q0 -141 -77.5 -226.5t-209.5 -85.5q-131 0 -208 85.5 t-77 226.5v395h48v-394q0 -124 62 -196t175 -72q114 0 176.5 72t62.5 196v394h48z" glyph-name="Uring" horiz-adv-x="795" unicode="Ů"/><glyph d="M313 725q32 0 54.5 -22.5t22.5 -53.5q0 -32 -22.5 -55t-54.5 -23t-54 23t-22 55q0 31 22 53.5t54 22.5zM314 696q-20 0 -33 -14t-13 -33q0 -20 13 -34.5t33 -14.5t33 14.5t13 34.5q0 19 -13 33t-33 14zM558 0h-36l-2 131q-29 -70 -88 -104t-124 -34q-100 0 -158.5 61.5 t-58.5 173.5v272h45v-270q0 -96 47.5 -145t129.5 -49q91 0 145 61.5t54 167.5v235h46v-500z" glyph-name="uring" horiz-adv-x="650" unicode="ů"/><glyph d="M321 750h-40l66 102h64zM441 750h-40l66 102h64zM688 700v-395q0 -141 -77.5 -226.5t-209.5 -85.5q-131 0 -208 85.5t-77 226.5v395h48v-394q0 -124 62 -196t175 -72q114 0 176.5 72t62.5 196v394h48z" glyph-name="Uhungarumlaut" horiz-adv-x="795" unicode="Ű"/><glyph d="M249 571h-40l66 102h64zM368 571h-40l66 102h64zM558 0h-36l-2 131q-29 -70 -88 -104t-124 -34q-100 0 -158.5 61.5t-58.5 173.5v272h45v-270q0 -96 47.5 -145t129.5 -49q91 0 145 61.5t54 167.5v235h46v-500z" glyph-name="uhungarumlaut" horiz-adv-x="650" unicode="ű"/><glyph d="M688 700v-395q0 -124 -60.5 -206t-167.5 -101q-69 -26 -69 -73q0 -28 19.5 -42.5t47.5 -14.5h6v-33h-5q-40 0 -68 21t-28 61q0 51 62 77l-24 -1q-131 0 -208 85.5t-77 226.5v395h48v-394q0 -124 62 -196t175 -72q114 0 176.5 72t62.5 196v394h48z" glyph-name="Uogonek" horiz-adv-x="795" unicode="Ų"/><glyph d="M484 -75q0 -28 19.5 -42.5t47.5 -14.5h6v-33h-5q-40 0 -68 21t-28 61q0 58 79 83h-13l-2 131q-29 -70 -88 -104t-124 -34q-100 0 -158.5 61.5t-58.5 173.5v272h45v-270q0 -96 47.5 -145t129.5 -49q91 0 145 61.5t54 167.5v235h46v-500h1q-75 -25 -75 -75z" glyph-name="uogonek" horiz-adv-x="650" unicode="ų"/><glyph d="M682 750l-87 70l-88 -70h-46l115 107h38l114 -107h-46zM866 0h-24l-247 601l-247 -601h-25l-275 700h52l235 -608l247 608h25l247 -608l235 608h52z" glyph-name="Wcircumflex" horiz-adv-x="1190" unicode="Ŵ"/><glyph d="M557 571l-87 70l-88 -70h-46l115 108h38l114 -108h-46zM684 0h-25l-189 421l-190 -421h-25l-217 500h48l182 -425l190 425h23l190 -425l183 425h48z" glyph-name="wcircumflex" horiz-adv-x="940" unicode="ŵ"/><glyph d="M435 750l-87 70l-88 -70h-46l115 107h38l114 -107h-46zM371 0h-48v242l-275 458h55l244 -401l244 401h55l-275 -457v-243z" glyph-name="Ycircumflex" horiz-adv-x="694" unicode="Ŷ"/><glyph d="M338 679l114 -108h-46l-87 70l-88 -70h-46l115 108h38zM141 500v-266q0 -96 47.5 -145t129.5 -49q91 0 145 61.5t54 167.5v231h46v-438q0 -118 -61.5 -185t-177.5 -68q-120 0 -211 76l27 29q84 -64 184 -63q96 0 144.5 52.5t48.5 151.5v74q-28 -67 -85 -99.5t-119 -32.5 q-100 0 -158.5 61.5t-58.5 173.5v268h45z" glyph-name="ycircumflex" horiz-adv-x="655" unicode="ŷ"/><glyph d="M245 750q-13 0 -21.5 8t-8.5 20t8.5 20t21.5 8t21.5 -8t8.5 -20t-8.5 -20t-21.5 -8zM449 750q-13 0 -21.5 8t-8.5 20t8.5 20t21.5 8t21.5 -8t8.5 -20t-8.5 -20t-21.5 -8zM371 0h-48v242l-275 458h55l244 -401l244 401h55l-275 -457v-243z" glyph-name="Ydieresis" horiz-adv-x="694" unicode="Ÿ"/><glyph d="M304 750h-40l66 102h64zM571 0h-513v23l435 632h-399v45h470v-23l-435 -632h442v-45z" glyph-name="Zacute" horiz-adv-x="629" unicode="Ź"/><glyph d="M273 571h-40l66 102h64zM503 0h-437v27l355 430h-324v43h394v-27l-355 -430h367v-43z" glyph-name="zacute" horiz-adv-x="570" unicode="ź"/><glyph d="M311 750q-13 0 -21.5 8t-8.5 20t8.5 20t21.5 8t21.5 -8t8.5 -20t-8.5 -20t-21.5 -8zM571 0h-513v23l435 632h-399v45h470v-23l-435 -632h442v-45z" glyph-name="Zdotaccent" horiz-adv-x="629" unicode="Ż"/><glyph d="M278 571q-13 0 -21.5 8.5t-8.5 19.5q0 12 8.5 20.5t21.5 8.5t21.5 -8.5t8.5 -20.5q0 -11 -8.5 -19.5t-21.5 -8.5zM503 0h-437v27l355 430h-324v43h394v-27l-355 -430h367v-43z" glyph-name="zdotaccent" horiz-adv-x="570" unicode="ż"/><glyph d="M338 750h-38l-115 107h46l88 -70l87 70h46zM571 0h-513v23l435 632h-399v45h470v-23l-435 -632h442v-45z" glyph-name="Zcaron" horiz-adv-x="629" unicode="Ž"/><glyph d="M308 571h-38l-115 108h46l88 -70l87 70h46zM491 473l-355 -430h367v-43h-437v27l355 430h-324v43h394v-27z" glyph-name="zcaron" horiz-adv-x="570" unicode="ž"/><glyph d="M371 750h-38l-115 107h46l88 -70l87 70h46zM655 0h-52l-89 215h-325l-89 -215h-52l292 700h24zM207 260h290l-145 349z" glyph-name="Acaron" horiz-adv-x="704" unicode="Ǎ"/><glyph d="M342 571h-38l-115 108h46l88 -70l87 70h46zM577 0h-35l-2 133q-29 -62 -88.5 -100.5t-132.5 -38.5q-106 0 -179.5 74.5t-73.5 181.5t73.5 182t179.5 75q73 0 132.5 -38.5t88.5 -101.5l2 133h35v-500zM323 37q87 0 149 61.5t62 151.5t-62 152t-149 62q-88 0 -149.5 -62 t-61.5 -152t61.5 -151.5t149.5 -61.5z" glyph-name="acaron" unicode="ǎ"/><glyph d="M273 750h-38l-115 107h46l88 -70l87 70h46zM358 655h-81v-610h81v-45h-210v45h81v610h-81v45h210v-45z" glyph-name="Icaron" horiz-adv-x="506" unicode="Ǐ"/><glyph d="M254 571h-38l-115 108h46l88 -70l87 70h46zM257 0h-45v500h45v-500z" glyph-name="icaron" horiz-adv-x="465" unicode="ǐ"/><glyph d="M450 750h-38l-115 107h46l88 -70l87 70h46zM431 707q148 0 252.5 -104.5t104.5 -252.5t-104.5 -252.5t-252.5 -104.5t-252 104.5t-104 252.5t104 252.5t252 104.5zM431 662q-129 0 -218.5 -90t-89.5 -222t89.5 -222t218.5 -90q130 0 219.5 90t89.5 222t-90 222t-219 90z" glyph-name="Ocaron" horiz-adv-x="863" unicode="Ǒ"/><glyph d="M342 571h-38l-115 108h46l88 -70l87 70h46zM322 507q106 0 181.5 -75.5t75.5 -181.5t-75 -181t-182 -75q-106 0 -181 75t-75 181q0 107 75 182t181 75zM323 464q-88 0 -149.5 -62t-61.5 -152t61.5 -151.5t149.5 -61.5q87 0 149 61.5t62 151.5t-62 152t-149 62z" glyph-name="ocaron" horiz-adv-x="646" unicode="ǒ"/><glyph d="M421 750h-38l-115 107h46l88 -70l87 70h46zM688 700v-395q0 -141 -77.5 -226.5t-209.5 -85.5q-131 0 -208 85.5t-77 226.5v395h48v-394q0 -124 62 -196t175 -72q114 0 176.5 72t62.5 196v394h48z" glyph-name="Ucaron" horiz-adv-x="795" unicode="Ǔ"/><glyph d="M333 571h-38l-115 108h46l88 -70l87 70h46zM558 0h-36l-2 131q-29 -70 -88 -104t-124 -34q-100 0 -158.5 61.5t-58.5 173.5v272h45v-270q0 -96 47.5 -145t129.5 -49q91 0 145 61.5t54 167.5v235h46v-500z" glyph-name="ucaron" horiz-adv-x="650" unicode="ǔ"/><glyph d="M528 841h-250v36h250v-36zM302 750q-13 0 -21.5 8t-8.5 20t8.5 20t21.5 8t21.5 -8t8.5 -20t-8.5 -20t-21.5 -8zM505 750q-13 0 -21.5 8t-8.5 20t8.5 20t21.5 8t21.5 -8t8.5 -20t-8.5 -20t-21.5 -8zM688 700v-395q0 -141 -77.5 -226.5t-209.5 -85.5q-131 0 -208 85.5 t-77 226.5v395h48v-394q0 -124 62 -196t175 -72q114 0 176.5 72t62.5 196v394h48z" glyph-name="Udieresismacron" horiz-adv-x="795" unicode="Ǖ"/><glyph d="M447 657h-250v36h250v-36zM219 628q13 0 21.5 -8.5t8.5 -20.5q0 -11 -8.5 -19.5t-21.5 -8.5t-21.5 8.5t-8.5 19.5q0 12 8.5 20.5t21.5 8.5zM422 628q13 0 21.5 -8.5t8.5 -20.5q0 -11 -8.5 -19.5t-21.5 -8.5t-21.5 8.5t-8.5 19.5q0 12 8.5 20.5t21.5 8.5zM558 0h-36 l-2 131q-29 -70 -88 -104t-124 -34q-100 0 -158.5 61.5t-58.5 173.5v272h45v-270q0 -96 47.5 -145t129.5 -49q91 0 145 61.5t54 167.5v235h46v-500z" glyph-name="udieresismacron" horiz-adv-x="650" unicode="ǖ"/><glyph d="M405 841h-40l66 102h64zM302 750q-13 0 -21.5 8t-8.5 20t8.5 20t21.5 8t21.5 -8t8.5 -20t-8.5 -20t-21.5 -8zM505 750q-13 0 -21.5 8t-8.5 20t8.5 20t21.5 8t21.5 -8t8.5 -20t-8.5 -20t-21.5 -8zM688 700v-395q0 -141 -77.5 -226.5t-209.5 -85.5q-131 0 -208 85.5 t-77 226.5v395h48v-394q0 -124 62 -196t175 -72q114 0 176.5 72t62.5 196v394h48z" glyph-name="Udieresisacute" horiz-adv-x="795" unicode="Ǘ"/><glyph d="M322 657h-40l66 102h64zM219 627q13 0 21.5 -8t8.5 -20q0 -11 -8.5 -19.5t-21.5 -8.5t-21.5 8.5t-8.5 19.5q0 12 8.5 20t21.5 8zM422 627q13 0 21.5 -8t8.5 -20q0 -11 -8.5 -19.5t-21.5 -8.5t-21.5 8.5t-8.5 19.5q0 12 8.5 20t21.5 8zM558 0h-36l-2 131q-29 -70 -88 -104 t-124 -34q-100 0 -158.5 61.5t-58.5 173.5v272h45v-270q0 -96 47.5 -145t129.5 -49q91 0 145 61.5t54 167.5v235h46v-500z" glyph-name="udieresisacute" horiz-adv-x="650" unicode="ǘ"/><glyph d="M402 879l87 69h46l-114 -107h-38l-115 108h46zM302 806q13 0 21.5 -8t8.5 -20t-8.5 -20t-21.5 -8t-21.5 8t-8.5 20t8.5 20t21.5 8zM505 806q13 0 21.5 -8t8.5 -20t-8.5 -20t-21.5 -8t-21.5 8t-8.5 20t8.5 20t21.5 8zM688 700v-395q0 -141 -77.5 -226.5t-209.5 -85.5 q-131 0 -208 85.5t-77 226.5v395h48v-394q0 -124 62 -196t175 -72q114 0 176.5 72t62.5 196v394h48z" glyph-name="Udieresiscaron" horiz-adv-x="795" unicode="Ǚ"/><glyph d="M333 657h-38l-115 107h46l88 -70l87 70h46zM219 628q13 0 21.5 -8.5t8.5 -20.5q0 -11 -8.5 -19.5t-21.5 -8.5t-21.5 8.5t-8.5 19.5q0 12 8.5 20.5t21.5 8.5zM422 628q13 0 21.5 -8.5t8.5 -20.5q0 -11 -8.5 -19.5t-21.5 -8.5t-21.5 8.5t-8.5 19.5q0 12 8.5 20.5t21.5 8.5z M558 0h-36l-2 131q-29 -70 -88 -104t-124 -34q-100 0 -158.5 61.5t-58.5 173.5v272h45v-270q0 -96 47.5 -145t129.5 -49q91 0 145 61.5t54 167.5v235h46v-500z" glyph-name="udieresiscaron" horiz-adv-x="650" unicode="ǚ"/><glyph d="M372 943l66 -102h-39l-91 102h64zM302 750q-13 0 -21.5 8t-8.5 20t8.5 20t21.5 8t21.5 -8t8.5 -20t-8.5 -20t-21.5 -8zM505 750q-13 0 -21.5 8t-8.5 20t8.5 20t21.5 8t21.5 -8t8.5 -20t-8.5 -20t-21.5 -8zM688 700v-395q0 -141 -77.5 -226.5t-209.5 -85.5 q-131 0 -208 85.5t-77 226.5v395h48v-394q0 -124 62 -196t175 -72q114 0 176.5 72t62.5 196v394h48z" glyph-name="Udieresisgrave" horiz-adv-x="795" unicode="Ǜ"/><glyph d="M348 657h-39l-91 102h64zM219 628q13 0 21.5 -8.5t8.5 -20.5q0 -11 -8.5 -19.5t-21.5 -8.5t-21.5 8.5t-8.5 19.5q0 12 8.5 20.5t21.5 8.5zM422 628q13 0 21.5 -8.5t8.5 -20.5q0 -11 -8.5 -19.5t-21.5 -8.5t-21.5 8.5t-8.5 19.5q0 12 8.5 20.5t21.5 8.5zM558 0h-36l-2 131 q-29 -70 -88 -104t-124 -34q-100 0 -158.5 61.5t-58.5 173.5v272h45v-270q0 -96 47.5 -145t129.5 -49q91 0 145 61.5t54 167.5v235h46v-500z" glyph-name="udieresisgrave" horiz-adv-x="650" unicode="ǜ"/><glyph d="M308 707h12q76 0 140.5 -30.5t103.5 -86.5l-31 -29q-35 49 -91.5 75t-121.5 26h-12q-72 0 -128 -38.5t-56 -104.5q0 -52 38.5 -81t127.5 -41l86 -12q108 -14 160.5 -59.5t52.5 -132.5q0 -89 -73.5 -144.5t-176.5 -55.5h-6q-102 0 -173.5 42.5t-101.5 115.5l31 29 q26 -66 88.5 -104t155.5 -38h6q84 0 143 42.5t59 112.5q0 66 -41 101t-128 46l-86 12q-108 14 -159 54t-51 112q0 84 69 136.5t163 52.5zM296 -171h-40l66 102h64z" glyph-name="Scommaaccent" horiz-adv-x="648" unicode="Ș"/><glyph d="M266 507h13q54 0 107.5 -25.5t82.5 -67.5l-28 -26q-24 36 -70.5 58.5t-90.5 22.5h-9q-61 0 -101.5 -26t-40.5 -69q0 -36 24.5 -58t95.5 -30l72 -8q25 -2 45.5 -6.5t42.5 -14.5t37 -24.5t24.5 -38.5t9.5 -56q0 -67 -55 -106t-137 -39h-9q-70 0 -129.5 29t-83.5 74l28 26 q19 -39 72 -64.5t113 -25.5h4q65 0 108.5 26.5t43.5 77.5q0 31 -10 51t-30 30t-37 14t-44 7l-70 8q-160 17 -160 126q0 61 52.5 98t129.5 37zM239 -171h-40l66 102h64z" glyph-name="scommaaccent" horiz-adv-x="547" unicode="ș"/><glyph d="M325 655v-655h-48v655h-229v45h506v-45h-229zM273 -171h-40l66 102h64z" glyph-name="uni021A" horiz-adv-x="602" unicode="Ț"/><glyph d="M189 457v-457h-45v457h-77v43h77v168h45v-168h77v-43h-77zM123 -171h-40l66 102h64z" glyph-name="uni021B" horiz-adv-x="322" unicode="ț"/><glyph d="M287 601l-87 70l-88 -70h-46l115 108h38l114 -108h-46z" glyph-name="circumflex" horiz-adv-x="400" unicode="ˆ"/><glyph d="M219 601h-38l-115 107h46l88 -69l87 69h46z" glyph-name="caron" horiz-adv-x="400" unicode="ˇ"/><glyph d="M303 709h35q0 -51 -39.5 -85t-96.5 -34t-96.5 34t-39.5 85h35q0 -36 29 -60t72 -24t72 24t29 60z" glyph-name="breve" horiz-adv-x="405" unicode="˘"/><glyph d="M96 659q-13 0 -21.5 8t-8.5 20q0 11 8.5 19.5t21.5 8.5t21.5 -8.5t8.5 -19.5q0 -12 -8.5 -20t-21.5 -8z" glyph-name="dotaccent" horiz-adv-x="193" unicode="˙"/><glyph d="M142 715q32 0 54.5 -22.5t22.5 -53.5q0 -33 -22.5 -55.5t-54.5 -22.5t-54 22.5t-22 55.5q0 31 22 53.5t54 22.5zM143 686q-20 0 -33 -14t-13 -34t13 -34t33 -14t33 14t13 34q0 19 -13 33.5t-33 14.5z" glyph-name="ring" horiz-adv-x="286" unicode="˚"/><glyph d="M145 0h24q-75 -25 -75 -75q0 -28 19.5 -42.5t47.5 -14.5h6v-33h-5q-40 0 -68 21t-28 61q0 58 79 83z" glyph-name="ogonek" horiz-adv-x="236" unicode="˛"/><glyph d="M346 700l-15 -42q-20 -60 -63 -61q-27 -1 -50 22l-39 39q-16 16 -35 16q-29 -1 -42 -44l-7 -25h-29l14 42q20 60 63 61q28 1 50 -22l39 -39q16 -16 35 -16q29 1 42 44l7 25h30z" glyph-name="tilde" horiz-adv-x="413" unicode="˜"/><glyph d="M106 607h-40l66 102h64zM226 607h-40l66 102h64z" glyph-name="hungarumlaut" horiz-adv-x="383" unicode="˝"/><glyph d="M106 -250h-40l66 102h64z" glyph-name="commaaccentcomb" horiz-adv-x="0" unicode="̦"/><glyph d="M225 750q-13 0 -21.5 8t-8.5 20t8.5 20t21.5 8t21.5 -8t8.5 -20t-8.5 -20t-21.5 -8zM429 750q-13 0 -21.5 8t-8.5 20t8.5 20t21.5 8t21.5 -8t8.5 -20t-8.5 -20t-21.5 -8zM164 377h364v-44h-364v-288h383v-45h-431v700h431v-45h-383v-278z" glyph-name="uni0401" horiz-adv-x="606" unicode="Ё"/><glyph d="M189 215l-89 -215h-52l292 700h24l291 -700h-52l-89 215h-325zM352 609l-145 -349h290z" glyph-name="uni0410" horiz-adv-x="704" unicode="А"/><glyph d="M164 413h240q114 0 172.5 -54t58.5 -152q0 -207 -231 -207h-288v700h431v-45h-383v-242zM164 45h240q100 0 142.5 40t42.5 122q0 162 -185 162h-240v-324z" glyph-name="uni0411" horiz-adv-x="694" unicode="Б"/><glyph d="M116 700h246q69 0 116.5 -15t71 -41.5t33 -55t9.5 -64.5q0 -120 -113 -156q75 -13 114.5 -60t39.5 -118q0 -190 -236 -190h-281v700zM164 655v-270h202q180 0 180 134q0 63 -37 99.5t-143 36.5h-202zM164 343v-298h240q98 0 140.5 38.5t42.5 110.5q0 70 -45.5 109.5 t-137.5 39.5h-240z" glyph-name="uni0412" horiz-adv-x="692" unicode="В"/><glyph d="M164 655v-655h-48v700h428v-45h-380z" glyph-name="uni0413" horiz-adv-x="593" unicode="Г"/><glyph d="M782 -129h-48v129h-654v-129h-48v174h90l273 655h25l273 -655h89v-174zM407 608l-234 -563h468z" glyph-name="uni0414" horiz-adv-x="814" unicode="Д"/><glyph d="M164 377h364v-44h-364v-288h383v-45h-431v700h431v-45h-383v-278z" glyph-name="uni0415" horiz-adv-x="609" unicode="Е"/><glyph d="M952 0l-141 220q-26 40 -37 54.5t-30 32.5t-39 22.5t-51 4.5h-102v-334h-48v334h-102q-31 0 -51 -4.5t-39 -22.5t-30 -32.5t-37 -54.5l-142 -220h-55l156 240q39 60 61 85t53 35q-24 11 -43.5 34.5t-56.5 78.5l-148 227h56l133 -207q26 -40 37 -54.5t30 -32.5t39 -22.5 t51 -4.5h88v321h48v-321h88q31 0 51 4.5t39 22.5t30 32.5t37 54.5l133 207h55l-147 -227q-36 -54 -56.5 -78t-44.5 -35q31 -10 53.5 -35t61.5 -85l156 -240h-56z" glyph-name="uni0416" horiz-adv-x="1056" unicode="Ж"/><glyph d="M224 386h99q180 0 180 135q0 63 -43.5 102t-133.5 39h-8q-66 0 -122.5 -26t-91.5 -75l-31 29q39 56 103.5 86.5t140.5 30.5h8q114 0 169 -52.5t55 -129.5q0 -127 -120 -160q70 -15 107.5 -61.5t37.5 -114.5q0 -90 -66 -143t-184 -53h-5q-98 0 -168.5 41.5t-102.5 113.5 l31 29q29 -65 91.5 -102t149.5 -37h5q95 0 149 40t54 115q0 70 -45.5 109.5t-137.5 39.5h-121v44z" glyph-name="uni0417" horiz-adv-x="632" unicode="З"/><glyph d="M626 0h-48v600l-447 -600h-25v700h48v-600l448 600h24v-700z" glyph-name="uni0418" horiz-adv-x="733" unicode="И"/><glyph d="M367 750q-57 0 -96.5 34t-39.5 85h35q0 -36 29 -60t72 -24t72 24t29 60h35q0 -51 -39.5 -85t-96.5 -34zM626 0h-48v600l-447 -600h-25v700h48v-600l448 600h24v-700z" glyph-name="uni0419" horiz-adv-x="733" unicode="Й"/><glyph d="M601 0l-142 220q-26 40 -37 54.5t-30 32.5t-39 22.5t-51 4.5h-138v-334h-48v700h48v-321h124q31 0 51 4.5t39 22.5t30 32.5t37 54.5l133 207h56l-148 -227q-25 -38 -37.5 -55.5t-29 -33.5t-33.5 -24q31 -10 53 -35t61 -85l156 -240h-55z" glyph-name="uni041A" horiz-adv-x="705" unicode="К"/><glyph d="M352 608l-252 -608h-52l292 700h24l291 -700h-52z" glyph-name="uni041B" horiz-adv-x="704" unicode="Л"/><glyph d="M774 0h-48v601l-286 -366l-286 366v-601h-48v700h25l309 -397l310 397h24v-700z" glyph-name="uni041C" horiz-adv-x="891" unicode="М"/><glyph d="M625 0h-48v333h-423v-333h-48v700h48v-322h423v322h48v-700z" glyph-name="uni041D" horiz-adv-x="732" unicode="Н"/><glyph d="M431 707q148 0 252.5 -104.5t104.5 -252.5t-104.5 -252.5t-252.5 -104.5t-252 104.5t-104 252.5t104 252.5t252 104.5zM431 662q-129 0 -218.5 -90t-89.5 -222t89.5 -222t218.5 -90q130 0 219.5 90t89.5 222t-90 222t-219 90z" glyph-name="uni041E" horiz-adv-x="863" unicode="О"/><glyph d="M624 0h-48v655h-422v-655h-48v700h518v-700z" glyph-name="uni041F" horiz-adv-x="731" unicode="П"/><glyph d="M116 700h216q133 0 218.5 -65.5t85.5 -185.5q0 -119 -86 -185t-218 -66h-168v-198h-48v700zM164 243h170q111 0 183 51.5t72 154.5t-72 154.5t-183 51.5h-170v-412z" glyph-name="uni0420" horiz-adv-x="711" unicode="Р"/><glyph d="M431 707q158 0 264 -117l-31 -29q-93 101 -233 101q-129 0 -218.5 -90t-89.5 -222t89.5 -222t218.5 -90q141 0 233 101l31 -31q-105 -115 -264 -115q-148 0 -252 104.5t-104 252.5t104 252.5t252 104.5z" glyph-name="uni0421" horiz-adv-x="753" unicode="С"/><glyph d="M325 655v-655h-48v655h-229v45h506v-45h-229z" glyph-name="uni0422" horiz-adv-x="602" unicode="Т"/><glyph d="M225 0h-54l152 249l-275 451h55l248 -403l247 403h54z" glyph-name="uni0423" horiz-adv-x="701" unicode="У"/><glyph d="M912 697q122 0 205.5 -85.5t83.5 -207.5q0 -123 -83.5 -208t-205.5 -85q-83 0 -150.5 44.5t-99.5 116.5v-272h-48v272q-31 -72 -99 -116.5t-150 -44.5q-123 0 -206.5 85t-83.5 208q0 122 84 207.5t206 85.5q82 0 150 -45t99 -117v165h48v-165q32 72 99.5 117t150.5 45z M368 156q103 0 174 71.5t71 176.5q0 104 -71.5 175.5t-173.5 71.5q-103 0 -174 -71.5t-71 -175.5q0 -105 71 -176.5t174 -71.5zM908 156q103 0 174 71.5t71 176.5q0 104 -71 175.5t-174 71.5q-102 0 -173.5 -71.5t-71.5 -175.5q0 -105 71 -176.5t174 -71.5z" glyph-name="uni0424" horiz-adv-x="1276" unicode="Ф"/><glyph d="M333 317l-229 -317h-56l258 359l-247 341h57l219 -300l218 300h56l-246 -343l258 -357h-57z" glyph-name="uni0425" horiz-adv-x="669" unicode="Х"/><glyph d="M722 -129h-48v129h-568v700h48v-655h423v655h48v-655h97v-174z" glyph-name="uni0426" horiz-adv-x="771" unicode="Ц"/><glyph d="M587 0h-48v311q-28 -71 -88.5 -108.5t-134.5 -37.5q-116 0 -187 69.5t-71 218.5v247h48v-249q0 -127 58.5 -184t157.5 -57q42 0 79.5 14t69 42t50 76.5t18.5 111.5v246h48v-700z" glyph-name="uni0427" horiz-adv-x="704" unicode="Ч"/><glyph d="M941 0h-835v700h48v-655h345v655h48v-655h346v655h48v-700z" glyph-name="uni0428" horiz-adv-x="1050" unicode="Ш"/><glyph d="M1038 -129h-48v129h-884v700h48v-655h345v655h48v-655h346v655h48v-655h97v-174z" glyph-name="uni0429" horiz-adv-x="1097" unicode="Щ"/><glyph d="M194 413h238q114 0 172.5 -54t58.5 -152q0 -207 -231 -207h-286v655h-98v45h146v-287zM194 45h239q99 0 141.5 40t42.5 122q0 162 -184 162h-239v-324z" glyph-name="uni042A" horiz-adv-x="713" unicode="Ъ"/><glyph d="M163 413h238q114 0 172.5 -54t58.5 -152q0 -207 -231 -207h-286v700h48v-287zM788 0h-48v700h48v-700zM163 45h239q99 0 141.5 40t42.5 122q0 162 -184 162h-239v-324z" glyph-name="uni042B" horiz-adv-x="904" unicode="Ы"/><glyph d="M163 413h238q114 0 172.5 -54t58.5 -152q0 -207 -231 -207h-286v700h48v-287zM163 45h239q99 0 141.5 40t42.5 122q0 162 -184 162h-239v-324z" glyph-name="uni042C" horiz-adv-x="682" unicode="Ь"/><glyph d="M322 707q148 0 252 -104.5t104 -252.5t-104 -252.5t-252 -104.5q-159 0 -264 115l31 31q92 -101 233 -101q124 0 211.5 83.5t93.5 207.5h-363v44h363q-7 122 -94.5 205.5t-210.5 83.5q-140 0 -233 -101l-31 29q106 117 264 117z" glyph-name="uni042D" horiz-adv-x="753" unicode="Э"/><glyph d="M658 707q148 0 252.5 -104.5t104.5 -252.5t-104.5 -252.5t-252.5 -104.5q-142 0 -244 97.5t-110 238.5h-141v-329h-48v700h48v-327h141q8 140 110.5 237t243.5 97zM658 38q130 0 219.5 90t89.5 222t-90 222t-219 90t-218.5 -90t-89.5 -222t89.5 -222t218.5 -90z" glyph-name="uni042E" horiz-adv-x="1090" unicode="Ю"/><glyph d="M571 0h-48v208h-176q-62 0 -99 -20.5t-81 -88.5l-64 -99h-55l75 114q59 91 121 112q-88 23 -140.5 81t-52.5 147q0 117 84.5 181.5t217.5 64.5h218v-700zM523 655h-172q-110 0 -181.5 -50.5t-71.5 -150.5t71 -150.5t182 -50.5h172v402z" glyph-name="uni042F" horiz-adv-x="688" unicode="Я"/><glyph d="M577 0h-35l-2 133q-29 -62 -88.5 -100.5t-132.5 -38.5q-106 0 -179.5 74.5t-73.5 181.5t73.5 182t179.5 75q73 0 132.5 -38.5t88.5 -101.5l2 133h35v-500zM323 37q87 0 149 61.5t62 151.5t-62 152t-149 62q-88 0 -149.5 -62t-61.5 -152t61.5 -151.5t149.5 -61.5z" glyph-name="uni0430" unicode="а"/><glyph d="M493 700h45q0 -50 -38 -71t-125 -21h-14q-249 0 -249 -206l-1 -40q28 62 86.5 100.5t130.5 38.5q106 0 178.5 -73t72.5 -178q0 -108 -73 -182.5t-183 -74.5q-111 0 -184 74t-73 185v139q0 127 77.5 192t219.5 65q77 0 103.5 11t26.5 41zM323 459q-88 0 -149.5 -61 t-61.5 -150q0 -90 60 -151t151 -61q90 0 150.5 61t60.5 151q0 89 -61.5 150t-149.5 61z" glyph-name="uni0431" horiz-adv-x="646" unicode="б"/><glyph d="M96 500h262q79 0 117 -35t38 -91q0 -85 -76 -112q99 -23 99 -123q0 -139 -176 -139h-264v500zM142 460v-182h215q111 1 111 92q0 90 -111 90h-215zM142 40h219q130 0 130 101t-129 101l-220 1v-203z" glyph-name="uni0432" horiz-adv-x="607" unicode="в"/><glyph d="M141 457v-457h-45v500h390v-43h-345z" glyph-name="uni0433" horiz-adv-x="518" unicode="г"/><glyph d="M611 -120h-45v120h-483v-120h-45v163h64l210 457h25l210 -457h64v-163zM324 425l-175 -382h351z" glyph-name="uni0434" horiz-adv-x="650" unicode="д"/><glyph d="M321 507q81 0 140.5 -41.5t86.5 -110.5q10 -25 13 -59.5t-3 -53.5h-446q0 -95 60.5 -150.5t158.5 -56.5q103 0 184 63l26 -28q-93 -76 -210 -76q-118 1 -191.5 71t-73.5 185q0 108 71.5 182.5t183.5 74.5zM322 465q-87 0 -144.5 -54.5t-62.5 -135.5h403q2 35 -11 67 q-22 56 -70 89.5t-115 33.5z" glyph-name="uni0435" horiz-adv-x="627" unicode="е"/><glyph d="M768 0l-79 123q-45 71 -71.5 92.5t-85.5 21.5h-80v-237h-46v237h-80q-59 0 -85.5 -21.5t-71.5 -92.5l-79 -123h-52l95 145q37 58 59 82.5t53 33.5q-17 8 -34 25t-28.5 33t-35.5 53l-85 128h52l69 -106q45 -71 71.5 -92.5t85.5 -21.5h66v220h46v-220h66q59 0 85.5 21.5 t71.5 92.5l69 106h52l-85 -128q-24 -37 -35.5 -53t-28.5 -33t-34 -25q31 -9 53 -33.5t59 -82.5l95 -145h-52z" glyph-name="uni0436" horiz-adv-x="859" unicode="ж"/><glyph d="M394 262q100 -23 100 -123q0 -71 -56.5 -108.5t-144.5 -37.5h-22q-69 0 -128.5 29.5t-81.5 72.5l27 28q21 -38 72 -63t111 -26h21q70 1 113 28t43 81q0 99 -129 100l-92 1v33h88q110 0 110 91q0 46 -38.5 72t-98.5 26h-14q-50 0 -96.5 -21.5t-72.5 -56.5l-26 27 q29 41 83.5 66.5t113.5 25.5h15q77 0 128.5 -36t51.5 -96q0 -85 -77 -113z" glyph-name="uni0437" horiz-adv-x="569" unicode="з"/><glyph d="M538 0h-46v419l-371 -419h-25v500h45v-419l372 419h25v-500z" glyph-name="uni0438" horiz-adv-x="635" unicode="и"/><glyph d="M316 566q-57 0 -96.5 34t-39.5 85h35q0 -36 29 -60t72 -24t72 24t29 60h35q0 -51 -39.5 -85t-96.5 -34zM538 0h-46v419l-371 -419h-25v500h45v-419l372 419h25v-500z" glyph-name="uni0439" horiz-adv-x="635" unicode="й"/><glyph d="M479 0l-79 123q-45 71 -71.5 92.5t-84.5 21.5h-98v-237h-45v500h45v-220h84q58 0 84.5 21.5t71.5 92.5l69 106h52l-85 -128q-24 -37 -35.5 -53t-28.5 -33t-34 -25q31 -9 53 -33.5t59 -82.5l95 -145h-52z" glyph-name="uni043A" horiz-adv-x="568" unicode="к"/><glyph d="M280 425l-194 -425h-48l230 500h25l230 -500h-48z" glyph-name="uni043B" horiz-adv-x="561" unicode="л"/><glyph d="M600 0h-46v419l-206 -233l-207 233v-419h-45v500h25l227 -256l227 256h25v-500z" glyph-name="uni043C" horiz-adv-x="697" unicode="м"/><glyph d="M539 0h-45v230h-353v-230h-45v500h45v-227h353v227h45v-500z" glyph-name="uni043D" horiz-adv-x="636" unicode="н"/><glyph d="M322 507q106 0 181.5 -75.5t75.5 -181.5t-75 -181t-182 -75q-106 0 -181 75t-75 181q0 107 75 182t181 75zM323 464q-88 0 -149.5 -62t-61.5 -152t61.5 -151.5t149.5 -61.5q87 0 149 61.5t62 151.5t-62 152t-149 62z" glyph-name="uni043E" horiz-adv-x="646" unicode="о"/><glyph d="M539 0h-45v457h-353v-457h-45v500h443v-500z" glyph-name="uni043F" horiz-adv-x="636" unicode="п"/><glyph d="M359 507q106 0 179.5 -75t73.5 -182t-73.5 -181.5t-179.5 -74.5q-70 0 -127.5 37t-85.5 97v-312h-45v684h35l2 -133q29 63 89 101.5t132 38.5zM356 463q-88 0 -149.5 -61.5t-61.5 -151.5t61.5 -151.5t149.5 -61.5t149.5 61.5t61.5 151.5t-61.5 151.5t-149.5 61.5z" glyph-name="uni0440" horiz-adv-x="679" unicode="р"/><glyph d="M322 507q120 0 197 -93l-28 -29q-67 78 -169 78q-88 0 -149.5 -61.5t-61.5 -151.5t61.5 -151.5t149.5 -61.5q101 0 169 79l28 -30q-77 -92 -197 -92q-106 0 -181 75t-75 181q0 107 75 182t181 75z" glyph-name="uni0441" horiz-adv-x="581" unicode="с"/><glyph d="M280 457v-457h-45v457h-197v43h440v-43h-198z" glyph-name="uni0442" horiz-adv-x="517" unicode="т"/><glyph d="M563 500v-438q0 -118 -61.5 -185t-177.5 -68q-120 0 -211 76l27 29q84 -64 184 -63q96 0 144.5 52.5t48.5 151.5v74q-28 -67 -85 -99.5t-119 -32.5q-100 0 -158.5 61.5t-58.5 173.5v268h45v-266q0 -96 47.5 -145t129.5 -49q91 0 145 61.5t54 167.5v231h46z" glyph-name="uni0443" horiz-adv-x="655" unicode="у"/><glyph d="M788 507q106 0 179.5 -75t73.5 -182t-73.5 -181.5t-179.5 -74.5q-69 0 -126.5 36.5t-85.5 95.5v-293h-45v293q-28 -59 -85.5 -95.5t-126.5 -36.5q-106 0 -179.5 74.5t-73.5 181.5t73.5 182t179.5 75q72 0 131 -37.5t88 -99.5l1 130h29l1 -131q29 62 88 100t131 38z M323 37q87 0 149 61.5t62 151.5t-62 151.5t-149 61.5q-88 0 -149.5 -61.5t-61.5 -151.5t61.5 -151.5t149.5 -61.5zM785 37q88 0 149.5 61.5t61.5 151.5t-61.5 151.5t-149.5 61.5t-149.5 -61.5t-61.5 -151.5t61.5 -151.5t149.5 -61.5z" glyph-name="uni0444" horiz-adv-x="1108" unicode="ф"/><glyph d="M281 221l-189 -221h-54l216 258l-206 242h54l181 -209l178 209h54l-206 -245l216 -255h-54z" glyph-name="uni0445" horiz-adv-x="564" unicode="х"/><glyph d="M633 -120h-45v120h-492v500h45v-457h351v457h46v-457h95v-163z" glyph-name="uni0446" horiz-adv-x="672" unicode="ц"/><glyph d="M553 0h-45v216q-25 -51 -74 -78t-115 -27q-123 0 -175.5 65.5t-52.5 188.5v135h45v-134q0 -106 41.5 -158.5t146.5 -52.5q52 0 89.5 16t57.5 44t28.5 59.5t8.5 68.5v157h45v-500z" glyph-name="uni0447" horiz-adv-x="650" unicode="ч"/><glyph d="M819 0h-723v500h45v-457h294v457h45v-457h294v457h45v-500z" glyph-name="uni0448" horiz-adv-x="916" unicode="ш"/><glyph d="M915 -120h-46v120h-773v500h45v-457h294v457h45v-457h294v457h45v-457h96v-163z" glyph-name="uni0449" horiz-adv-x="953" unicode="щ"/><glyph d="M180 329h201q101 0 146.5 -47t45.5 -117q0 -71 -45.5 -118t-146.5 -47h-246v457h-97v43h142v-171zM180 42h204q76 0 110 34t34 89q0 54 -34 88t-110 34h-204v-245z" glyph-name="uni044A" horiz-adv-x="665" unicode="ъ"/><glyph d="M141 329h201q101 0 147 -47t46 -117q0 -71 -46 -118t-147 -47h-246v500h45v-171zM649 0h-45v500h45v-500zM142 42h204q76 0 110 34t34 89q0 54 -34 88t-110 34h-204v-245z" glyph-name="uni044B" horiz-adv-x="746" unicode="ы"/><glyph d="M141 329h201q101 0 147 -47t46 -117q0 -71 -46 -118t-147 -47h-246v500h45v-171zM142 42h204q76 0 110 34t34 89q0 54 -34 88t-110 34h-204v-245z" glyph-name="uni044C" horiz-adv-x="593" unicode="ь"/><glyph d="M258 507q106 0 181 -75t75 -182q0 -106 -75 -181t-181 -75q-119 0 -196 92l27 30q68 -79 169 -79q84 0 144 56.5t65 140.5h-244v33h244q-5 83 -65.5 139.5t-143.5 56.5q-102 0 -168 -78l-29 29q77 93 197 93z" glyph-name="uni044D" horiz-adv-x="581" unicode="э"/><glyph d="M502 507q106 0 181 -75.5t75 -181.5t-75 -181t-181 -75q-101 0 -174 68t-80 168h-107v-230h-45v500h45v-227h107q8 99 81 166.5t173 67.5zM503 37q87 0 149 61.5t62 151.5t-62 152t-149 62q-88 0 -149.5 -62t-61.5 -152t61.5 -151.5t149.5 -61.5z" glyph-name="uni044E" horiz-adv-x="825" unicode="ю"/><glyph d="M498 0h-46v172h-157q-29 -1 -47.5 -6t-37.5 -23t-29 -32t-36 -54l-38 -57h-51l47 71q5 8 16.5 24.5t16.5 23t14 18.5t14.5 18t14 12.5t16.5 11.5q-63 13 -99.5 55t-36.5 100q0 73 52.5 119.5t148.5 46.5h238v-500zM453 457h-196q-71 0 -111.5 -33t-40.5 -90t40.5 -90 t111.5 -33h196v246z" glyph-name="uni044F" horiz-adv-x="589" unicode="я"/><glyph d="M221 628q13 0 21.5 -8.5t8.5 -20.5q0 -11 -8.5 -19.5t-21.5 -8.5t-21.5 8.5t-8.5 19.5q0 12 8.5 20.5t21.5 8.5zM424 628q13 0 21.5 -8.5t8.5 -20.5q0 -11 -8.5 -19.5t-21.5 -8.5t-21.5 8.5t-8.5 19.5q0 12 8.5 20.5t21.5 8.5zM321 507q81 0 140.5 -41.5t86.5 -110.5 q10 -25 13 -59.5t-3 -53.5h-446q0 -95 60.5 -150.5t158.5 -56.5q103 0 184 63l26 -28q-93 -76 -210 -76q-118 1 -191.5 71t-73.5 185q0 108 71.5 182.5t183.5 74.5zM322 465q-87 0 -144.5 -54.5t-62.5 -135.5h403q2 35 -11 67q-22 56 -70 89.5t-115 33.5z" glyph-name="uni0451" horiz-adv-x="624" unicode="ё"/><glyph d="M566 852l66 -102h-39l-91 102h64zM866 0h-24l-247 601l-247 -601h-25l-275 700h52l235 -608l247 608h25l247 -608l235 608h52z" glyph-name="Wgrave" horiz-adv-x="1190" unicode="Ẁ"/><glyph d="M439 673l66 -102h-39l-91 102h64zM684 0h-25l-189 421l-190 -421h-25l-217 500h48l182 -425l190 425h23l190 -425l183 425h48z" glyph-name="wgrave" horiz-adv-x="940" unicode="ẁ"/><glyph d="M597 750h-40l66 102h64zM866 0h-24l-247 601l-247 -601h-25l-275 700h52l235 -608l247 608h25l247 -608l235 608h52z" glyph-name="Wacute" horiz-adv-x="1190" unicode="Ẃ"/><glyph d="M475 571h-40l66 102h64zM684 0h-25l-189 421l-190 -421h-25l-217 500h48l182 -425l190 425h23l190 -425l183 425h48z" glyph-name="wacute" horiz-adv-x="940" unicode="ẃ"/><glyph d="M492 750q-13 0 -21.5 8t-8.5 20t8.5 20t21.5 8t21.5 -8t8.5 -20t-8.5 -20t-21.5 -8zM696 750q-13 0 -21.5 8t-8.5 20t8.5 20t21.5 8t21.5 -8t8.5 -20t-8.5 -20t-21.5 -8zM866 0h-24l-247 601l-247 -601h-25l-275 700h52l235 -608l247 608h25l247 -608l235 608h52z" glyph-name="Wdieresis" horiz-adv-x="1190" unicode="Ẅ"/><glyph d="M370 571q-13 0 -21.5 8.5t-8.5 19.5q0 12 8.5 20.5t21.5 8.5t21.5 -8.5t8.5 -20.5q0 -11 -8.5 -19.5t-21.5 -8.5zM574 571q-13 0 -21.5 8.5t-8.5 19.5q0 12 8.5 20.5t21.5 8.5t21.5 -8.5t8.5 -20.5q0 -11 -8.5 -19.5t-21.5 -8.5zM684 0h-25l-189 421l-190 -421h-25 l-217 500h48l182 -425l190 425h23l190 -425l183 425h48z" glyph-name="wdieresis" horiz-adv-x="940" unicode="ẅ"/><glyph d="M315 852l66 -102h-39l-91 102h64zM371 0h-48v242l-275 458h55l244 -401l244 401h55l-275 -457v-243z" glyph-name="Ygrave" horiz-adv-x="694" unicode="Ỳ"/><glyph d="M357 571h-39l-91 102h64zM141 500v-266q0 -96 47.5 -145t129.5 -49q91 0 145 61.5t54 167.5v231h46v-438q0 -118 -61.5 -185t-177.5 -68q-120 0 -211 76l27 29q84 -64 184 -63q96 0 144.5 52.5t48.5 151.5v74q-28 -67 -85 -99.5t-119 -32.5q-100 0 -158.5 61.5 t-58.5 173.5v268h45z" glyph-name="ygrave" horiz-adv-x="655" unicode="ỳ"/><glyph d="M438 272h-372v34h372v-34z" glyph-name="endash" horiz-adv-x="505" unicode="–"/><glyph d="M606 272h-540v34h540v-34z" glyph-name="emdash" horiz-adv-x="673" unicode="—"/><glyph d="M66 538l72 162h31l-47 -162h-56z" glyph-name="quoteleft" horiz-adv-x="236" unicode="‘"/><glyph d="M169 700l-72 -162h-31l47 162h56z" glyph-name="quoteright" horiz-adv-x="236" unicode="’"/><glyph d="M169 57l-72 -162h-31l47 162h56z" glyph-name="quotesinglbase" horiz-adv-x="236" unicode="‚"/><glyph d="M66 538l72 162h31l-47 -162h-56zM157 538l72 162h31l-47 -162h-56z" glyph-name="quotedblleft" horiz-adv-x="327" unicode="“"/><glyph d="M169 700l-72 -162h-31l47 162h56zM260 700l-72 -162h-31l47 162h56z" glyph-name="quotedblright" horiz-adv-x="327" unicode="”"/><glyph d="M169 57l-72 -162h-31l47 162h56zM260 57l-72 -162h-31l47 162h56z" glyph-name="quotedblbase" horiz-adv-x="327" unicode="„"/><glyph d="M213 499h112v-32h-112v-527h-35v527h-112v32h112v201h35v-201z" glyph-name="dagger" horiz-adv-x="392" unicode="†"/><glyph d="M213 499h112v-32h-112v-292h112v-32h-112v-203h-35v203h-112v32h112v292h-112v32h112v201h35v-201z" glyph-name="daggerdbl" horiz-adv-x="392" unicode="‡"/><glyph d="M186 427q50 0 85 -35t35 -85t-35 -85t-85 -35t-85 35t-35 85t35 85t85 35z" glyph-name="bullet" horiz-adv-x="373" unicode="•"/><glyph d="M100 57q14 0 24 -9.5t10 -22.5t-10 -22.5t-24 -9.5t-24 9.5t-10 22.5t10 22.5t24 9.5zM287 57q14 0 24 -9.5t10 -22.5t-10 -22.5t-24 -9.5t-24 9.5t-10 22.5t10 22.5t24 9.5zM474 57q14 0 24 -9.5t10 -22.5t-10 -22.5t-24 -9.5t-24 9.5t-10 22.5t10 22.5t24 9.5z" glyph-name="ellipsis" horiz-adv-x="574" unicode="…"/><glyph d="M234 707q70 0 119 -48.5t49 -117.5t-49 -117.5t-119 -48.5t-119 48.5t-49 117.5t49 117.5t119 48.5zM216 0h-37l421 700h38zM235 673q-58 0 -94.5 -36.5t-36.5 -95.5t36.5 -95.5t94.5 -36.5t94.5 37t36.5 95t-36.5 95t-94.5 37zM583 325q70 0 119 -48.5t49 -117.5 t-49 -117.5t-119 -48.5t-119 48.5t-49 117.5t49 117.5t119 48.5zM967 325q70 0 119 -48.5t49 -117.5t-49 -117.5t-119 -48.5t-119 48.5t-49 117.5t49 117.5t119 48.5zM583 291q-58 0 -94.5 -36.5t-36.5 -95.5t36.5 -95.5t94.5 -36.5t94.5 37t36.5 95t-36.5 95t-94.5 37z M967 291q-58 0 -94.5 -36.5t-36.5 -95.5t36.5 -95.5t94.5 -36.5t94.5 37t36.5 95t-36.5 95t-94.5 37z" glyph-name="perthousand" horiz-adv-x="1201" unicode="‰"/><glyph d="M213 351l-95 -78l95 -76v-47l-147 124l147 123v-46z" glyph-name="guilsinglleft" horiz-adv-x="280" unicode="‹"/><glyph d="M213 274l-147 -124v47l96 76l-96 78v46z" glyph-name="guilsinglright" horiz-adv-x="280" unicode="›"/><glyph d="M404 700l-322 -700h-34l322 700h34z" glyph-name="fraction" horiz-adv-x="453" unicode="⁄"/><glyph d="M512 38q141 0 233 101l31 -31q-105 -115 -264 -115q-126 0 -222 77t-124 197h-100v33h93q-3 24 -3 50q0 30 4 54h-94v32h100q30 118 126 194.5t220 76.5q158 0 264 -117l-31 -29q-93 101 -233 101q-106 0 -188 -63t-109 -163h386l-18 -32h-375q-4 -23 -4 -54q0 -29 4 -50 h275l-19 -33h-250q26 -102 108.5 -165.5t189.5 -63.5z" glyph-name="Euro" horiz-adv-x="843" unicode="€"/><glyph d="M983 707q107 0 182 -75.5t75 -181.5t-75 -181t-182 -75t-181.5 75t-74.5 181q0 107 75 182t181 75zM636 0h-24l-448 600v-600h-48v700h25l447 -600v600h48v-700zM983 664q-88 0 -149.5 -62t-61.5 -152t61.5 -151.5t149.5 -61.5q87 0 149 61.5t62 151.5t-62 152t-149 62z M747 42h473v-42h-473v42z" glyph-name="uni2116" horiz-adv-x="1336" unicode="№"/><glyph d="M223 668v-278h-35v278h-122v32h280v-32h-123zM702 390h-35v248l-128 -142l-128 142v-248h-35v310h18l145 -159l145 159h18v-310z" glyph-name="trademark" horiz-adv-x="768" unicode="™"/><glyph d="M150 382v256l-61 -74l-23 17l100 119h21v-318h-37zM190 0h-34l322 700h34zM625 171q31 -10 48.5 -31.5t17.5 -51.5q0 -43 -35 -68.5t-93 -26.5h-3q-59 0 -95 26t-36 69q0 30 17.5 51.5t48.5 31.5q-53 23 -53 72q0 37 31.5 59t81.5 23h5q51 0 84.5 -22.5t33.5 -59.5 q0 -49 -53 -72zM561 183q18 0 34.5 3.5t33 17.5t16.5 36q0 27 -24 42t-60 15t-60 -15t-24 -42t23 -41.5t61 -15.5zM560 22q43 0 70 19t27 50t-27 49.5t-70 18.5q-44 0 -70.5 -18.5t-26.5 -49.5t26.5 -50t70.5 -19z" glyph-name="oneeighth" horiz-adv-x="758" unicode="⅛"/><glyph d="M335 681l-147 -116q12 4 47 4q58 -3 88.5 -27t30.5 -63q0 -44 -37.5 -74t-98.5 -30h-5q-54 0 -91.5 20.5t-55.5 46.5l23 22q37 -56 121 -56q46 0 77 21.5t31 53.5q0 27 -26.5 45t-72.5 18q-43 0 -65 -10l-20 15l147 117h-180v32h234v-19zM308 0h-34l322 700h34zM744 171 q31 -10 48.5 -31.5t17.5 -51.5q0 -43 -35 -68.5t-93 -26.5h-3q-59 0 -95 26t-36 69q0 30 17.5 51.5t48.5 31.5q-53 23 -53 72q0 37 31.5 59t81.5 23h5q51 0 84.5 -22.5t33.5 -59.5q0 -49 -53 -72zM679 183q18 0 34.5 3.5t33 17.5t16.5 36q0 27 -24 42t-60 15t-60 -15 t-24 -42t23 -41.5t61 -15.5zM679 22q43 0 70 19t27 50t-27 49.5t-70 18.5q-44 0 -70.5 -18.5t-26.5 -49.5t26.5 -50t70.5 -19z" glyph-name="threeeighths" horiz-adv-x="876" unicode="⅜"/><glyph d="M328 667h-197v-106q36 19 94 19q63 0 96 -27t33 -74q0 -44 -37.5 -74t-98.5 -30h-5q-55 1 -92 21.5t-55 46.5l23 21q40 -56 121 -56q46 0 77 21.5t31 53.5t-25.5 51.5t-73.5 19.5q-63 2 -98 -20l-21 10v156h228v-33zM285 0h-34l322 700h34zM721 171q31 -10 48.5 -31.5 t17.5 -51.5q0 -43 -35 -68.5t-93 -26.5h-3q-59 0 -95 26t-36 69q0 30 17.5 51.5t48.5 31.5q-53 23 -53 72q0 37 31.5 59t81.5 23h5q51 0 84.5 -22.5t33.5 -59.5q0 -49 -53 -72zM656 183q18 0 34.5 3.5t33 17.5t16.5 36q0 27 -24 42t-60 15t-60 -15t-24 -42t23 -41.5 t61 -15.5zM656 22q43 0 70 19t27 50t-27 49.5t-70 18.5q-44 0 -70.5 -18.5t-26.5 -49.5t26.5 -50t70.5 -19z" glyph-name="fiveeighths" horiz-adv-x="853" unicode="⅝"/><glyph d="M66 382l191 286h-182v32h230v-18l-201 -300h-38zM180 0h-34l322 700h34zM616 171q31 -10 48.5 -31.5t17.5 -51.5q0 -43 -35 -68.5t-93 -26.5h-3q-59 0 -95 26t-36 69q0 30 17.5 51.5t48.5 31.5q-53 23 -53 72q0 37 31.5 59t81.5 23h5q51 0 84.5 -22.5t33.5 -59.5 q0 -49 -53 -72zM551 183q18 0 34.5 3.5t33 17.5t16.5 36q0 27 -24 42t-60 15t-60 -15t-24 -42t23 -41.5t61 -15.5zM551 22q43 0 70 19t27 50t-27 49.5t-70 18.5q-44 0 -70.5 -18.5t-26.5 -49.5t26.5 -50t70.5 -19z" glyph-name="seveneighths" horiz-adv-x="748" unicode="⅞"/><glyph d="M368 707h7q59 0 104.5 -22t71 -59.5t40 -86.5t13 -103t-9.5 -109l-13 -72q-19 -111 -102 -186.5t-199 -75.5q-112 0 -170 69t-40 169q18 102 99.5 168.5t187.5 66.5q74 0 125.5 -34t68.5 -90q12 56 6.5 113t-23 103t-61 75t-105.5 29h-7q-85 0 -156 -66l-26 29 q78 82 189 82zM359 425q-90 0 -158 -56t-82 -138t34 -137.5t137 -55.5q96 0 161 59.5t80 145.5q13 74 -35.5 128t-136.5 54z" glyph-name="partialdiff" horiz-adv-x="671" unicode="∂"/><glyph d="M581 481l-61 -61q64 -74 64 -170q0 -106 -75 -181t-182 -75q-97 0 -168 63l-63 -63l-24 24l62 63q-63 73 -63 169q0 107 75 182t181 75q96 0 169 -63l61 61zM117 250q0 -80 49 -138l299 301q-59 51 -137 51q-88 0 -149.5 -62t-61.5 -152zM328 37q87 0 149 61.5t62 151.5 q0 79 -50 139l-299 -301q59 -51 138 -51z" glyph-name="emptyset" horiz-adv-x="655" unicode="∅"/><glyph d="M579 655v-789h-48v789h-351v-789h-48v789h-66v45h579v-45h-66z" glyph-name="product" horiz-adv-x="712" unicode="∏"/><glyph d="M512 656h-368l255 -373l-255 -373h368v-45h-446l280 418l-279 417l445 1v-45z" glyph-name="summation" horiz-adv-x="579" unicode="∑"/><glyph d="M480 285h-414v34h414v-34z" glyph-name="minus" horiz-adv-x="547" unicode="−"/><glyph d="M346 0h-27l-170 449l-83 -26v39l120 38l156 -424l241 624h34z" glyph-name="radical" horiz-adv-x="684" unicode="√"/><glyph d="M190 324h6q82 0 164 -105q82 105 164 105h7q52 0 87.5 -38t35.5 -94v-11q0 -55 -35.5 -93.5t-87.5 -38.5h-7q-82 0 -164 106q-82 -106 -164 -106h-6q-54 0 -89 36t-35 96v11q0 56 35.5 94t88.5 38zM202 291h-6q-42 0 -68.5 -29.5t-26.5 -70.5v-9q0 -46 26 -73t69 -27h6 q68 0 141 106q-72 103 -141 103zM525 291h-6q-69 0 -141 -104q70 -105 141 -105h6q41 0 68 30t27 70v9q0 41 -26.5 70.5t-68.5 29.5z" glyph-name="infinity" horiz-adv-x="721" unicode="∞"/><glyph d="M274 705h-13q-42 0 -63.5 -29t-19.5 -69l33 -607q3 -59 -31 -99.5t-95 -40.5h-19v45h14q42 0 63.5 29t19.5 70l-33 607q-4 58 30 98.5t95 40.5h19v-45z" glyph-name="integral" horiz-adv-x="341" unicode="∫"/><glyph d="M66 296l43 57q17 24 42.5 32t49.5 3t47 -18l62 -36q23 -16 54.5 -15.5t48.5 24.5l27 39h36l-43 -58q-25 -34 -67 -36t-73 19l-61 36q-24 16 -55 15.5t-48 -24.5l-27 -38h-36zM476 255l-43 -57q-25 -35 -67 -37t-73 20l-61 35q-24 17 -55 16.5t-48 -24.5l-27 -39h-36 l43 57q25 35 67 37t72 -19l62 -36q23 -17 54.5 -16t48.5 25l27 38h36z" glyph-name="approxequal" horiz-adv-x="543" unicode="≈"/><glyph d="M314 345l-47 -111h213v-34h-227l-53 -125h-34l52 125h-152v34h167l46 111h-213v34h227l51 121h35l-51 -121h152v-34h-166z" glyph-name="notequal" horiz-adv-x="547" unicode="≠"/><glyph d="M389 471l-246 -157l246 -157v-45l-323 202l323 203v-46zM389 0h-323v34h323v-34z" glyph-name="lessequal" horiz-adv-x="456" unicode="≤"/><glyph d="M389 314l-323 -202v45l246 157l-246 157v46zM389 0h-323v34h323v-34z" glyph-name="greaterequal" horiz-adv-x="456" unicode="≥"/><glyph d="M266 -25l-200 262l200 263l200 -263zM266 441l-157 -204l157 -204l157 204z" glyph-name="lozenge" horiz-adv-x="533" unicode="◊"/><glyph d="M164 334v-334h-48v700h48v-321h183l230 321h57l-247 -344l256 -356h-56l-242 334h-181z" glyph-name="K.ss01" horiz-adv-x="691"/><glyph d="M164 334v-334h-48v700h48v-321h183l230 321h57l-247 -344l256 -356h-56l-242 334h-181zM314 -171h-40l66 102h64z" glyph-name="Kcommaaccent.ss01" horiz-adv-x="691"/><glyph d="M116 700h218q133 0 217.5 -64.5t84.5 -181.5q0 -90 -52.5 -149t-141.5 -82l191 -223h-56l-184 213q-15 -3 -49 -5h-180v-208h-48v700zM164 655v-402h173q110 0 181 50.5t71 150.5t-71 150.5t-181 50.5h-173z" glyph-name="R.ss01" horiz-adv-x="687"/><glyph d="M336 750h-40l66 102h64zM116 700h218q133 0 217.5 -64.5t84.5 -181.5q0 -90 -52.5 -149t-141.5 -82l191 -223h-56l-184 213q-15 -3 -49 -5h-180v-208h-48v700zM164 655v-402h173q110 0 181 50.5t71 150.5t-71 150.5t-181 50.5h-173z" glyph-name="Racute.ss01" horiz-adv-x="687"/><glyph d="M342 750h-38l-115 107h46l88 -70l87 70h46zM116 700h218q133 0 217.5 -64.5t84.5 -181.5q0 -90 -52.5 -149t-141.5 -82l191 -223h-56l-184 213q-15 -3 -49 -5h-180v-208h-48v700zM164 655v-402h173q110 0 181 50.5t71 150.5t-71 150.5t-181 50.5h-173z" glyph-name="Rcaron.ss01" horiz-adv-x="687"/><glyph d="M116 700h218q133 0 217.5 -64.5t84.5 -181.5q0 -90 -52.5 -149t-141.5 -82l191 -223h-56l-184 213q-15 -3 -49 -5h-180v-208h-48v700zM164 655v-402h173q110 0 181 50.5t71 150.5t-71 150.5t-181 50.5h-173zM302 -171h-40l66 102h64z" glyph-name="Rcommaaccent.ss01" horiz-adv-x="687"/><glyph d="M131 571q-13 0 -21.5 8.5t-8.5 19.5q0 12 8.5 20.5t21.5 8.5t21.5 -8.5t8.5 -20.5q0 -11 -8.5 -19.5t-21.5 -8.5zM109 0v500h45v-500h-45z" glyph-name="i.loclTRK" horiz-adv-x="258"/><glyph d="M146 233v-233h-45v700h45v-423h135l188 223h53l-204 -245l213 -255h-52l-198 233h-135z" glyph-name="k.ss01" horiz-adv-x="570"/><glyph d="M146 233v-233h-45v700h45v-423h135l188 223h53l-204 -245l213 -255h-52l-198 233h-135zM335 -69l-90 -102h-40l66 102h64z" glyph-name="kcommaaccent.ss01" horiz-adv-x="570"/><glyph d="M999 700l-247 -344l256 -356h-56l-242 334h-158v-334h-48v334h-158l-242 -334h-56l256 356l-247 344h56l231 -321h160v321h48v-321h160l230 321h57z" glyph-name="uni0416.ss01" horiz-adv-x="1056"/><glyph d="M164 334v-334h-48v700h48v-321h183l230 321h57l-247 -344l256 -356h-56l-242 334h-181z" glyph-name="uni041A.ss01" horiz-adv-x="691"/><glyph d="M571 0h-48v208h-180q-33 2 -49 5l-184 -213h-56l191 223q-89 23 -141.5 82t-52.5 149q0 117 84 181.5t217 64.5h219v-700zM522 655h-173q-110 0 -181 -50.5t-71 -150.5t71 -150.5t181 -50.5h173v402z" glyph-name="uni042F.ss01" horiz-adv-x="687"/><glyph d="M446 233v-233h-45v233h-113l-197 -233h-53l213 255l-203 245h52l188 -223h113v223h45v-223h113l188 223h52l-203 -245l213 -255h-53l-197 233h-113z" glyph-name="uni0436.ss01" horiz-adv-x="848"/><glyph d="M146 233v-233h-45v500h45v-223h135l188 223h53l-204 -245l213 -255h-52l-198 233h-135z" glyph-name="uni043A.ss01" horiz-adv-x="570"/><glyph d="M490 0h-46v172h-198l-146 -172h-52l149 178q-68 10 -107 52.5t-39 103.5q0 73 52.5 119.5t148.5 46.5h238v-500zM445 457h-196q-71 0 -111.5 -33t-40.5 -90t40.5 -90t111.5 -33h196v246z" glyph-name="uni044F.ss01" horiz-adv-x="581"/><glyph d="M431 707q148 0 252.5 -104.5t104.5 -252.5t-104.5 -252.5t-252.5 -104.5t-252 104.5t-104 252.5t104 252.5t252 104.5zM431 662q-129 0 -218.5 -90t-89.5 -222t89.5 -222t218.5 -90q130 0 219.5 90t89.5 222t-90 222t-219 90z" glyph-name="zero.lf" horiz-adv-x="863"/><glyph d="M226 0h-48v606l-96 -115l-34 26l153 183h25v-700z" glyph-name="one.lf" horiz-adv-x="342"/><glyph d="M572 0h-514v25l317 290q78 71 104.5 110t26.5 88q0 68 -54 108.5t-128 40.5h-12q-134 0 -207 -103l-31 29q40 58 103 88.5t138 30.5h12q94 0 160.5 -53t66.5 -134q0 -62 -35.5 -112t-132.5 -138l-243 -226h429v-44z" glyph-name="two.lf" horiz-adv-x="630"/><glyph d="M558 675l-294 -266q41 12 97 12q105 -3 161.5 -56.5t56.5 -138.5q0 -102 -67 -166.5t-176 -66.5h-11q-97 1 -166 42t-101 113l31 29q67 -139 239 -140h7q87 2 142 54.5t55 139.5q0 73 -47.5 116t-142.5 43q-74 0 -134 -28l-28 21l301 272h-362v45h439v-25z" glyph-name="three.lf" horiz-adv-x="637"/><glyph d="M497 152v-152h-48v152h-401v24l425 524h24v-504h85v-44h-85zM450 611l-339 -415h339v415z" glyph-name="four.lf" horiz-adv-x="630"/><glyph d="M516 655h-363v-260q71 52 196 52q105 0 167 -59t62 -158q0 -104 -67.5 -170.5t-176.5 -66.5h-11q-97 1 -165 42t-100 113l31 29q67 -139 238 -140h7q86 2 142 54.5t56 140.5q0 84 -51.5 130.5t-140.5 46.5q-134 0 -205 -64l-26 21v334h407v-45z" glyph-name="five.lf" horiz-adv-x="636"/><glyph d="M319 466q107 0 176.5 -66.5t69.5 -168.5q0 -100 -70 -169t-181 -69q-117 0 -186 75.5t-69 186.5l-1 72q0 73 14 137t43.5 120.5t84 89.5t127.5 33h7q133 0 208 -96l-32 -28q-69 80 -175 80h-7q-62 0 -107.5 -28t-69.5 -76.5t-35 -101.5t-12 -115q27 56 84 90t131 34z M312 38q89 0 147 55.5t58 137.5t-58 138t-147 56t-147 -54t-58 -128q0 -86 54.5 -145.5t150.5 -59.5z" glyph-name="six.lf" horiz-adv-x="624"/><glyph d="M498 675l-397 -675h-53l385 655h-379v45h444v-25z" glyph-name="seven.lf" horiz-adv-x="546"/><glyph d="M394 378q70 -18 111 -65t41 -118q0 -93 -65 -146.5t-172 -55.5h-8q-109 0 -176 53.5t-67 148.5q0 71 41 118t111 65q-124 38 -124 156q0 79 58 125t146 48h13q92 0 153 -45.5t61 -127.5q0 -118 -123 -156zM133 528q0 -67 48.5 -100t120.5 -33q71 0 120 33t49 100 t-49 100.5t-120 33.5q-72 0 -120.5 -33.5t-48.5 -100.5zM302 38q88 0 142.5 42.5t54.5 119.5t-53 118.5t-144 43.5q-29 0 -58.5 -6.5t-63 -22.5t-54.5 -50.5t-21 -82.5q0 -77 54.5 -119.5t142.5 -42.5z" glyph-name="eight.lf" horiz-adv-x="604"/><glyph d="M304 234q-106 0 -176 67t-70 168q0 100 70 169t182 69q116 0 185.5 -75.5t69.5 -185.5v-73q0 -73 -13.5 -137t-43 -120t-84 -89.5t-127.5 -33.5h-8q-134 0 -207 96l31 29q69 -80 175 -80h7q63 0 108 28t69 76.5t35 101t12 114.5q-26 -55 -83.5 -89.5t-131.5 -34.5z M312 662q-89 0 -147 -55.5t-58 -137.5t58 -137.5t147 -55.5t147 53.5t58 127.5q0 86 -54.5 145.5t-150.5 59.5z" glyph-name="nine.lf" horiz-adv-x="624"/><glyph d="M351 544q114 0 195 -80.5t81 -194.5q0 -115 -81 -195.5t-195 -80.5q-115 0 -195.5 80.5t-80.5 195.5q0 114 80.5 194.5t195.5 80.5zM350 499q-94 0 -160.5 -67.5t-66.5 -162.5q0 -96 66.5 -163.5t160.5 -67.5q95 0 161.5 67.5t66.5 163.5q0 95 -67 162.5t-161 67.5z" glyph-name="zero.osf" horiz-adv-x="702"/><glyph d="M226 0h-48v444l-96 -115l-34 25l153 183h25v-537z" glyph-name="one.osf" horiz-adv-x="342"/><glyph d="M572 0h-514v25l333 205q69 43 92 72.5t23 73.5q0 51 -48.5 87t-127.5 37h-12q-65 0 -121 -26.5t-92 -76.5l-31 29q40 57 104.5 87.5t139.5 30.5h12q101 0 162 -49t62 -115q0 -58 -33.5 -99t-120.5 -90l-234 -147h406v-44z" glyph-name="two.osf" horiz-adv-x="630"/><glyph d="M558 513l-294 -264q39 11 100 11q104 -3 159.5 -56.5t55.5 -137.5q0 -95 -67.5 -157t-176.5 -64h-10q-97 1 -166 42.5t-101 112.5l31 29q66 -139 239 -139h6q87 1 142.5 51.5t55.5 129.5q0 73 -47.5 116t-142.5 43q-76 0 -134 -29l-28 22l300 270h-361v44h439v-24z" glyph-name="three.osf" horiz-adv-x="637"/><glyph d="M497 1v-149h-48v149h-401v25l425 511h24v-491h85v-45h-85zM449 448l-338 -402h338v402z" glyph-name="four.osf" horiz-adv-x="630"/><glyph d="M516 493h-363v-258q71 52 196 52q105 0 167 -59t62 -158q0 -96 -68 -159.5t-177 -65.5h-10q-97 1 -165 42.5t-100 112.5l31 29q66 -139 238 -139h5q86 1 143 51t57 131q0 84 -51.5 130.5t-140.5 46.5q-134 0 -205 -64l-26 21v331h407v-44z" glyph-name="five.osf" horiz-adv-x="636"/><glyph d="M319 466q107 0 176.5 -66.5t69.5 -168.5q0 -100 -70 -169t-181 -69q-117 0 -186 75.5t-69 186.5l-1 70q0 68 14 130t44 117t84.5 87.5t127.5 32.5h7q132 0 207 -95l-32 -29q-69 80 -175 80h-7q-62 0 -107 -27.5t-69 -74.5t-35 -97t-12 -106q26 55 83 89t131 34zM312 38 q89 0 147 55.5t58 137.5t-58 138t-147 56t-147 -54t-58 -128q0 -86 54.5 -145.5t150.5 -59.5z" glyph-name="six.osf" horiz-adv-x="624"/><glyph d="M492 513l-390 -661h-52l377 641h-379v44h444v-24z" glyph-name="seven.osf" horiz-adv-x="540"/><glyph d="M394 367q70 -18 111 -64.5t41 -114.5q0 -90 -67.5 -142.5t-176.5 -52.5h-5q-108 2 -173.5 54t-65.5 141q0 69 41 115t111 64q-124 38 -124 156q0 79 60 124.5t151 46.5h6q92 0 153 -45.5t61 -125.5q0 -118 -123 -156zM133 517q0 -67 48.5 -100.5t120.5 -33.5 q71 0 120 33.5t49 100.5t-49 100.5t-120 33.5q-72 0 -120.5 -33.5t-48.5 -100.5zM302 38q87 0 142 41.5t55 114.5q0 74 -53.5 114.5t-143.5 42.5q-22 0 -45 -3.5t-51.5 -14t-50 -27t-36 -45.5t-14.5 -67q0 -73 55 -114.5t142 -41.5z" glyph-name="eight.osf" horiz-adv-x="604"/><glyph d="M304 71q-106 0 -176 67t-70 168q0 100 70 169t182 69q117 0 186 -75t69 -186v-70q0 -54 -8 -104t-28 -99t-50 -85t-77.5 -58t-106.5 -22h-7q-132 0 -206 95l31 29q69 -79 176 -80h6q62 0 107 27.5t69 74.5t35 96.5t12 106.5q-26 -55 -83 -89t-131 -34zM312 499 q-89 0 -147 -55.5t-58 -137.5t58 -137.5t147 -55.5t147 53.5t58 127.5q0 86 -54.5 145.5t-150.5 59.5z" glyph-name="nine.osf" horiz-adv-x="624"/><glyph d="M422 707q148 0 252.5 -104.5t104.5 -252.5t-104.5 -252.5t-252.5 -104.5t-252 104.5t-104 252.5t104 252.5t252 104.5zM423 662q-129 0 -218.5 -90t-89.5 -222t89.5 -222t218.5 -90q130 0 219.5 90t89.5 222t-90 222t-219 90z" glyph-name="zero.tf" horiz-adv-x="846"/><glyph d="M244 0h-48v606l-96 -115l-34 26l153 183h25v-700z" glyph-name="one.tf" horiz-adv-x="311"/><glyph d="M580 0h-514v25l317 290q78 71 104.5 110t26.5 88q0 68 -54 108.5t-128 40.5h-12q-134 0 -207 -103l-31 29q40 58 103 88.5t138 30.5h12q94 0 160.5 -53t66.5 -134q0 -62 -35.5 -112t-132.5 -138l-243 -226h429v-44z" glyph-name="two.tf" horiz-adv-x="647"/><glyph d="M566 675l-294 -266q41 12 97 12q105 -3 161.5 -56.5t56.5 -138.5q0 -102 -67 -166.5t-176 -66.5h-11q-97 1 -166 42t-101 113l31 29q67 -139 239 -140h7q87 2 142 54.5t55 139.5q0 73 -47.5 116t-142.5 43q-75 0 -134 -28l-28 21l301 272h-362v45h439v-25z" glyph-name="three.tf" horiz-adv-x="654"/><glyph d="M515 152v-152h-48v152h-401v24l425 524h24v-504h85v-44h-85zM468 611l-339 -415h339v415z" glyph-name="four.tf" horiz-adv-x="667"/><glyph d="M524 655h-363v-260q72 52 196 52q105 0 167 -59t62 -158q0 -104 -67.5 -170.5t-176.5 -66.5h-11q-97 1 -165 42t-100 113l31 29q67 -139 238 -140h7q86 2 142 54.5t56 140.5q0 84 -51.5 130.5t-140.5 46.5q-134 0 -205 -64l-26 21v334h407v-45z" glyph-name="five.tf" horiz-adv-x="653"/><glyph d="M327 466q107 0 176.5 -66.5t69.5 -168.5q0 -100 -70 -169t-181 -69q-117 0 -186 75.5t-69 186.5l-1 72q0 73 14 137t43.5 120.5t84 89.5t127.5 33h7q133 0 208 -96l-32 -28q-69 80 -175 80h-7q-62 0 -107.5 -28t-69.5 -76.5t-35 -101.5t-12 -115q27 56 84 90t131 34z M321 38q89 0 147 55.5t58 137.5t-58 138t-147 56t-147 -54t-58 -128q0 -86 54.5 -145.5t150.5 -59.5z" glyph-name="six.tf" horiz-adv-x="640"/><glyph d="M516 675l-397 -675h-53l385 655h-379v45h444v-25z" glyph-name="seven.tf" horiz-adv-x="583"/><glyph d="M402 378q70 -18 111 -65t41 -118q0 -93 -65 -146.5t-172 -55.5h-8q-109 0 -176 53.5t-67 148.5q0 71 41 118t111 65q-124 38 -124 156q0 79 58 125t146 48h13q92 0 153 -45.5t61 -127.5q0 -118 -123 -156zM141 528q0 -67 48.5 -100t120.5 -33q71 0 120 33t49 100 t-49 100.5t-120 33.5q-72 0 -120.5 -33.5t-48.5 -100.5zM310 38q88 0 142.5 42.5t54.5 119.5t-53 118.5t-144 43.5q-29 0 -58.5 -6.5t-63 -22.5t-54.5 -50.5t-21 -82.5q0 -77 54.5 -119.5t142.5 -42.5z" glyph-name="eight.tf" horiz-adv-x="621"/><glyph d="M312 234q-106 0 -176 67t-70 168q0 100 70 169t182 69q116 0 185.5 -75.5t69.5 -185.5v-73q0 -73 -13.5 -137t-43 -120t-84 -89.5t-127.5 -33.5h-8q-134 0 -207 96l31 29q69 -80 175 -80h7q63 0 108 28t69 76.5t35 101t12 114.5q-26 -55 -83.5 -89.5t-131.5 -34.5z M320 662q-89 0 -147 -55.5t-58 -137.5t58 -137.5t147 -55.5t147 53.5t58 127.5q0 86 -54.5 145.5t-150.5 59.5z" glyph-name="nine.tf" horiz-adv-x="640"/><glyph d="M342 548q114 0 195 -81t81 -195q0 -115 -81 -195.5t-195 -80.5q-115 0 -195.5 80.5t-80.5 195.5q0 114 80.5 195t195.5 81zM342 502q-94 0 -160.5 -67.5t-66.5 -162.5q0 -96 66.5 -163t160.5 -67q95 0 161.5 67t66.5 163q0 95 -67 162.5t-161 67.5z" glyph-name="zero.tosf" horiz-adv-x="685"/><glyph d="M244 0h-48v447l-96 -115l-34 26l153 183h25v-541z" glyph-name="one.tosf" horiz-adv-x="311"/><glyph d="M580 0h-514v25l333 205q69 43 92 72.5t23 73.5q0 51 -48.5 87t-127.5 37h-12q-65 0 -121 -26.5t-92 -76.5l-31 29q40 57 104.5 87.5t139.5 30.5h12q101 0 162 -49t62 -115q0 -58 -33.5 -99t-120.5 -90l-234 -147h406v-44z" glyph-name="two.tosf" horiz-adv-x="647"/><glyph d="M566 513l-294 -264q39 11 100 11q104 -3 159.5 -56.5t55.5 -137.5q0 -95 -67.5 -157t-176.5 -64h-10q-97 1 -166 42.5t-101 112.5l31 29q66 -139 239 -139h6q87 1 142.5 51.5t55.5 129.5q0 73 -47.5 116t-142.5 43q-76 0 -134 -29l-28 22l300 270h-361v44h439v-24z" glyph-name="three.tosf" horiz-adv-x="654"/><glyph d="M515 1v-149h-48v149h-401v25l425 511h24v-491h85v-45h-85zM467 448l-338 -402h338v402z" glyph-name="four.tosf" horiz-adv-x="667"/><glyph d="M524 493h-363v-258q71 52 196 52q105 0 167 -59t62 -158q0 -96 -68 -159.5t-177 -65.5h-10q-97 1 -165 42.5t-100 112.5l31 29q66 -139 238 -139h5q86 1 143 51t57 131q0 84 -51.5 130.5t-140.5 46.5q-134 0 -205 -64l-26 21v331h407v-44z" glyph-name="five.tosf" horiz-adv-x="653"/><glyph d="M327 466q107 0 176.5 -66.5t69.5 -168.5q0 -100 -70 -169t-181 -69q-117 0 -186 75.5t-69 186.5l-1 70q0 68 14 130t44 117t84.5 87.5t127.5 32.5h7q132 0 207 -95l-32 -29q-69 80 -175 80h-7q-62 0 -107 -27.5t-69 -74.5t-35 -97t-12 -106q26 55 83 89t131 34zM321 38 q89 0 147 55.5t58 137.5t-58 138t-147 56t-147 -54t-58 -128q0 -86 54.5 -145.5t150.5 -59.5z" glyph-name="six.tosf" horiz-adv-x="640"/><glyph d="M510 513l-390 -661h-52l377 641h-379v44h444v-24z" glyph-name="seven.tosf" horiz-adv-x="577"/><glyph d="M402 367q70 -18 111 -64.5t41 -114.5q0 -90 -67.5 -142.5t-176.5 -52.5h-5q-108 2 -173.5 54t-65.5 141q0 69 41 115t111 64q-124 38 -124 156q0 79 60 124.5t151 46.5h6q92 0 153 -45.5t61 -125.5q0 -118 -123 -156zM141 517q0 -67 48.5 -100.5t120.5 -33.5 q71 0 120 33.5t49 100.5t-49 100.5t-120 33.5q-72 0 -120.5 -33.5t-48.5 -100.5zM310 38q87 0 142 41.5t55 114.5q0 74 -53.5 114.5t-143.5 42.5q-22 0 -45 -3.5t-51.5 -14t-50 -27t-36 -45.5t-14.5 -67q0 -73 55 -114.5t142 -41.5z" glyph-name="eight.tosf" horiz-adv-x="621"/><glyph d="M312 71q-106 0 -176 67t-70 168q0 100 70 169t182 69q117 0 186 -75t69 -186v-70q0 -54 -8 -104t-28 -99t-50 -85t-77.5 -58t-106.5 -22h-7q-132 0 -206 95l31 29q69 -79 176 -80h6q62 0 107 27.5t69 74.5t35 96.5t12 106.5q-26 -55 -83 -89t-131 -34zM320 499 q-89 0 -147 -55.5t-58 -137.5t58 -137.5t147 -55.5t147 53.5t58 127.5q0 86 -54.5 145.5t-150.5 59.5z" glyph-name="nine.tosf" horiz-adv-x="640"/><glyph d="M213 325q70 0 119 -48.5t49 -117.5t-49 -117.5t-119 -48.5t-119 48.5t-49 117.5t49 117.5t119 48.5zM213 291q-58 0 -94.5 -36.5t-36.5 -95.5t36.5 -95.5t94.5 -36.5t94.5 37t36.5 95t-36.5 95t-94.5 37z" glyph-name="zero.dnom" horiz-adv-x="425"/><glyph d="M169 0h-37v255l-61 -73l-23 17l100 119h21v-318z" glyph-name="one.dnom" horiz-adv-x="217"/><glyph d="M347 0h-299v16l186 120q34 21 50.5 40t16.5 43q0 27 -26.5 50t-68.5 23h-6q-72 0 -119 -57l-24 22q59 69 147 69h6q58 -1 92.5 -31.5t34.5 -70.5q0 -37 -23 -62.5t-70 -53.5l-119 -74h222v-34z" glyph-name="two.dnom" horiz-adv-x="395"/><glyph d="M317 299l-147 -116q16 5 47 4q58 -2 88.5 -26.5t30.5 -62.5q0 -45 -37.5 -75t-98.5 -30h-5q-55 1 -92 21.5t-55 46.5l23 21q40 -56 121 -56q46 0 77 21.5t31 53.5q0 27 -26.5 45.5t-72.5 18.5q-44 -1 -65 -11l-20 15l147 117h-180v32h234v-19z" glyph-name="three.dnom" horiz-adv-x="385"/><glyph d="M285 68v-68h-37v68h-200v16l216 234h21v-219h43v-31h-43zM248 260l-150 -161h150v161z" glyph-name="four.dnom" horiz-adv-x="377"/><glyph d="M310 286h-197v-106q38 18 94 18q63 0 96 -26.5t33 -73.5q0 -45 -37.5 -75t-98.5 -30h-5q-55 1 -92 21.5t-55 46.5l23 21q40 -56 121 -56q46 0 77 21.5t31 53.5q0 33 -25.5 52t-73.5 20q-63 0 -98 -21l-21 10v156h228v-32z" glyph-name="five.dnom" horiz-adv-x="385"/><glyph d="M189 218q58 0 94.5 -31.5t36.5 -80.5q0 -48 -37.5 -80.5t-97.5 -32.5q-66 0 -101.5 35t-35.5 89v34q0 32 7 61t22.5 55.5t45 42t69.5 15.5h4q71 0 107 -46l-21 -19q-34 36 -86 36h-4q-53 0 -79 -36.5t-30 -86.5q33 45 106 45zM184 23q45 0 73.5 24t28.5 59 q0 36 -28.5 59.5t-73.5 23.5q-44 0 -72 -22.5t-28 -54.5q0 -37 26.5 -63t73.5 -26z" glyph-name="six.dnom" horiz-adv-x="369"/><glyph d="M287 300l-201 -300h-38l191 286h-182v32h230v-18z" glyph-name="seven.dnom" horiz-adv-x="336"/><glyph d="M244 171q31 -10 48.5 -31.5t17.5 -51.5q0 -43 -35 -68.5t-93 -26.5h-3q-59 0 -95 26t-36 69q0 30 17.5 51.5t48.5 31.5q-53 23 -53 72q0 37 31.5 59t81.5 23h5q51 0 84.5 -22.5t33.5 -59.5q0 -49 -53 -72zM179 183q18 0 34.5 3.5t33 17.5t16.5 36q0 27 -24 42t-60 15 t-60 -15t-24 -42t23 -41.5t61 -15.5zM179 22q43 0 70 19t27 50t-27 49.5t-70 18.5q-44 0 -70.5 -18.5t-26.5 -49.5t26.5 -50t70.5 -19z" glyph-name="eight.dnom" horiz-adv-x="358"/><glyph d="M180 100q-58 0 -95 31.5t-37 80.5q0 48 37.5 80.5t98.5 32.5q65 0 100.5 -35t35.5 -89v-34q0 -32 -7 -61t-22.5 -55.5t-45 -42t-69.5 -15.5h-4q-70 0 -107 46l21 19q36 -36 86 -36h4q54 0 79.5 36t30.5 87q-35 -45 -106 -45zM184 295q-44 0 -72.5 -24t-28.5 -59 q0 -36 28 -59.5t73 -23.5q44 0 72.5 23t28.5 55q0 37 -27 62.5t-74 25.5z" glyph-name="nine.dnom" horiz-adv-x="369"/><glyph d="M213 707q70 0 119 -48.5t49 -117.5t-49 -117.5t-119 -48.5t-119 48.5t-49 117.5t49 117.5t119 48.5zM213 673q-58 0 -94.5 -36.5t-36.5 -95.5t36.5 -95.5t94.5 -36.5t94.5 37t36.5 95t-36.5 95t-94.5 37z" glyph-name="zero.numr" horiz-adv-x="425"/><glyph d="M169 382h-37v256l-61 -74l-23 17l100 119h21v-318z" glyph-name="one.numr" horiz-adv-x="217"/><glyph d="M347 381h-299v17l186 119q35 22 51 40.5t16 43.5q0 26 -26.5 49t-68.5 23h-6q-72 0 -119 -57l-24 22q59 69 147 69h6q58 0 92.5 -30.5t34.5 -71.5q0 -37 -22.5 -61.5t-70.5 -54.5l-119 -74h222v-34z" glyph-name="two.numr" horiz-adv-x="395"/><glyph d="M317 681l-147 -116q12 4 47 4q58 -3 88.5 -27t30.5 -63q0 -44 -37.5 -74t-98.5 -30h-5q-54 0 -91.5 20.5t-55.5 46.5l23 22q37 -56 121 -56q46 0 77 21.5t31 53.5q0 27 -26.5 45t-72.5 18q-43 0 -65 -10l-20 15l147 117h-180v32h234v-19z" glyph-name="three.numr" horiz-adv-x="385"/><glyph d="M285 449v-67h-37v67h-200v17l216 234h21v-219h43v-32h-43zM248 642l-150 -161h150v161z" glyph-name="four.numr" horiz-adv-x="377"/><glyph d="M310 667h-197v-106q36 19 94 19q63 0 96 -27t33 -74q0 -44 -37.5 -74t-98.5 -30h-5q-55 1 -92 21.5t-55 46.5l23 21q40 -56 121 -56q46 0 77 21.5t31 53.5t-25.5 51.5t-73.5 19.5q-63 2 -98 -20l-21 10v156h228v-33z" glyph-name="five.numr" horiz-adv-x="385"/><glyph d="M189 600q58 0 94.5 -31.5t36.5 -80.5q0 -48 -37.5 -80.5t-97.5 -32.5q-66 0 -101.5 35t-35.5 89v34q0 32 7 61t22.5 55.5t45 42t69.5 15.5h4q71 0 107 -46l-21 -19q-34 36 -86 36h-4q-53 0 -79 -36.5t-30 -86.5q33 45 106 45zM184 405q45 0 73.5 24t28.5 59 q0 36 -28.5 59.5t-73.5 23.5q-44 0 -72 -22.5t-28 -54.5q0 -37 26.5 -63t73.5 -26z" glyph-name="six.numr" horiz-adv-x="369"/><glyph d="M287 682l-201 -300h-38l191 286h-182v32h230v-18z" glyph-name="seven.numr" horiz-adv-x="336"/><glyph d="M244 553q66 -23 66 -83q0 -43 -35 -69t-93 -26h-3q-59 0 -95 26t-36 69q0 60 66 83q-53 21 -53 71q0 38 31.5 60t81.5 23h5q52 0 85 -22.5t33 -60.5q0 -50 -53 -71zM179 565q18 0 34.5 3.5t33 17t16.5 35.5q0 28 -24 43t-60 15t-60 -15t-24 -43q0 -27 23 -41t61 -15z M179 404q43 0 70 18.5t27 49.5q0 32 -27 50.5t-70 18.5q-44 0 -70.5 -18.5t-26.5 -50.5q0 -31 26.5 -49.5t70.5 -18.5z" glyph-name="eight.numr" horiz-adv-x="358"/><glyph d="M180 482q-58 0 -95 31.5t-37 80.5q0 48 37.5 80.5t98.5 32.5q65 0 100.5 -35t35.5 -89v-34q0 -32 -7 -61t-22.5 -55.5t-45 -42t-69.5 -15.5h-4q-70 0 -107 46l21 19q36 -36 86 -36h4q54 0 79.5 36t30.5 87q-35 -45 -106 -45zM184 677q-44 0 -72.5 -24t-28.5 -59 q0 -36 28 -59.5t73 -23.5q44 0 72.5 22.5t28.5 54.5q0 37 -27 63t-74 26z" glyph-name="nine.numr" horiz-adv-x="369"/></font>
</defs>
</svg>
